<svg width="379" height="38" viewBox="0 0 379 38" fill="none" xmlns="http://www.w3.org/2000/svg">
<path d="M18.118 18.418C18.118 9.626 15.71 5.23 10.894 5.23C6.078 5.23 3.67 9.626 3.67 18.418C3.67 27.238 6.078 31.648 10.894 31.648C15.71 31.648 18.118 27.238 18.118 18.418ZM21.142 18.418C21.142 29.002 17.726 34.294 10.894 34.294C4.006 34.294 0.562 29.002 0.562 18.418C0.562 14.022 1.234 10.452 2.578 7.708C4.286 4.264 7.058 2.542 10.894 2.542C14.674 2.542 17.432 4.264 19.168 7.708C19.812 9.08 20.302 10.648 20.638 12.412C20.974 14.176 21.142 16.178 21.142 18.418ZM27.2507 34.126C26.9427 34.126 26.7047 34.112 26.5367 34.084C26.3967 34.084 26.2847 34.056 26.2007 34C26.1447 33.916 26.1027 33.804 26.0747 33.664C26.0747 33.496 26.0747 33.258 26.0747 32.95L26.1167 32.026C26.1167 31.662 26.2287 31.368 26.4527 31.144L33.3827 23.5C38.5347 17.928 41.1107 13.7 41.1107 10.816C41.1107 9.136 40.5507 7.736 39.4307 6.616C38.3387 5.524 36.9807 4.978 35.3567 4.978C33.0887 4.978 30.7227 5.608 28.2587 6.868C27.8667 7.064 27.6427 6.98 27.5867 6.616L27.3347 5.23C27.2507 4.754 27.3907 4.46 27.7547 4.348C29.1827 3.704 30.4707 3.228 31.6187 2.92C32.7667 2.612 33.9427 2.458 35.1467 2.458C37.8347 2.458 39.9767 3.13 41.5727 4.474C43.3647 5.93 44.2607 8.002 44.2607 10.69C44.2607 11.726 44.0087 12.86 43.5047 14.092C43.0007 15.324 42.3007 16.612 41.4047 17.956C40.8447 18.74 40.0467 19.762 39.0107 21.022C38.0027 22.282 36.8407 23.626 35.5247 25.054C34.5447 26.118 33.5647 27.196 32.5847 28.288C31.6327 29.38 30.6667 30.458 29.6867 31.522H44.3867C44.7787 31.522 44.9747 31.718 44.9747 32.11V33.538C44.9747 33.93 44.7787 34.126 44.3867 34.126H27.2507Z" fill="#61A0FF"/>
<path d="M64.7129 13.84C65.5129 13.84 66.3396 13.8267 67.1929 13.8C68.0462 13.7733 68.8729 13.7467 69.6729 13.72C70.4996 13.6933 71.2596 13.6667 71.9529 13.64C72.6729 13.6133 73.2729 13.5867 73.7529 13.56C73.9129 13.56 74.1262 13.5467 74.3929 13.52C74.6862 13.4933 74.9929 13.48 75.3129 13.48C75.6329 13.4533 75.9529 13.4267 76.2729 13.4C76.6196 13.3733 76.9129 13.3333 77.1529 13.28C77.8196 11.4133 78.2596 9.45333 78.4729 7.4C78.5262 7 78.4729 6.73333 78.3129 6.6C78.1529 6.44 77.8862 6.36 77.5129 6.36H65.3129C64.9929 6.36 64.8329 6.18666 64.8329 5.84V4.44C64.8329 4.12 64.9929 3.96 65.3129 3.96H78.2729C79.5262 3.96 80.3529 4.2 80.7529 4.68C81.1529 5.13333 81.3262 5.85333 81.2729 6.84C81.1396 9.13333 80.6862 11.3733 79.9129 13.56C79.1396 15.72 78.0596 17.7867 76.6729 19.76C75.3129 21.7067 73.6596 23.52 71.7129 25.2C69.7929 26.88 67.6062 28.3733 65.1529 29.68C64.8062 29.8667 64.5529 29.8267 64.3929 29.56L63.5129 28.16C63.3262 27.84 63.3796 27.6133 63.6729 27.48C66.5796 25.96 69.0596 24.2133 71.1129 22.24C73.1929 20.2667 74.8329 18.1067 76.0329 15.76C75.6596 15.8133 75.2862 15.8533 74.9129 15.88C74.5396 15.88 74.2329 15.88 73.9929 15.88C73.3529 15.9067 72.6329 15.9333 71.8329 15.96C71.0596 15.9867 70.2596 16.0133 69.4329 16.04C68.6329 16.0667 67.8196 16.0933 66.9929 16.12C66.1929 16.1467 65.4329 16.16 64.7129 16.16C64.3662 16.16 64.1929 16 64.1929 15.68V14.32C64.1929 14 64.3662 13.84 64.7129 13.84ZM90.1529 15.36V1.52C90.1529 1.14667 90.3396 0.959999 90.7129 0.959999H92.3529C92.7262 0.959999 92.9129 1.14667 92.9129 1.52V37.28C92.9129 37.6533 92.7262 37.84 92.3529 37.84H90.7129C90.3396 37.84 90.1529 37.6533 90.1529 37.28V17.76H81.1929C80.8462 17.76 80.6729 17.6 80.6729 17.28V15.84C80.6729 15.52 80.8462 15.36 81.1929 15.36H90.1529ZM118.53 3.44C118.45 4.18666 118.317 4.89333 118.13 5.56C118.183 5.85333 118.25 6.13333 118.33 6.4C118.41 6.64 118.503 6.85333 118.61 7.04C119.277 8.34667 120.077 9.58667 121.01 10.76C121.97 11.9333 123.01 13 124.13 13.96C125.25 14.92 126.437 15.76 127.69 16.48C128.97 17.1733 130.277 17.7067 131.61 18.08C131.77 18.1333 131.877 18.24 131.93 18.4C131.983 18.56 131.983 18.7067 131.93 18.84L131.29 20.16C131.21 20.2933 131.117 20.4 131.01 20.48C130.93 20.56 130.757 20.5467 130.49 20.44C129.023 19.9333 127.61 19.2933 126.25 18.52C124.917 17.7467 123.663 16.88 122.49 15.92C121.343 14.9333 120.29 13.8667 119.33 12.72C118.37 11.5467 117.543 10.3333 116.85 9.08C116.237 10.36 115.477 11.6 114.57 12.8C113.663 14 112.65 15.12 111.53 16.16C110.41 17.1733 109.197 18.0933 107.89 18.92C106.583 19.7467 105.21 20.4267 103.77 20.96C103.343 21.12 103.077 21.0667 102.97 20.8L102.25 19.4C102.197 19.2667 102.183 19.1333 102.21 19C102.263 18.84 102.37 18.72 102.53 18.64C104.317 17.9733 105.97 17.1067 107.49 16.04C109.01 14.9467 110.343 13.7333 111.49 12.4C112.663 11.04 113.61 9.57333 114.33 8C115.077 6.42666 115.557 4.81333 115.77 3.16C115.797 2.84 115.97 2.68 116.29 2.68L118.09 2.88C118.41 2.93333 118.557 3.12 118.53 3.44ZM134.13 29.12C134.263 29.12 134.397 29.1733 134.53 29.28C134.663 29.36 134.73 29.48 134.73 29.64V31C134.73 31.1333 134.663 31.2533 134.53 31.36C134.397 31.4667 134.263 31.52 134.13 31.52H100.13C99.9701 31.52 99.8234 31.4667 99.6901 31.36C99.5834 31.2533 99.5301 31.1333 99.5301 31V29.64C99.5301 29.48 99.5834 29.36 99.6901 29.28C99.8234 29.1733 99.9701 29.12 100.13 29.12H134.13ZM145.307 28.04C145.307 26.92 145.521 26.1733 145.947 25.8C146.374 25.4 147.174 25.2 148.347 25.2H165.107C165.747 25.2 166.254 25.24 166.627 25.32C167.027 25.4 167.334 25.5467 167.547 25.76C167.787 25.9733 167.947 26.2667 168.027 26.64C168.107 27.0133 168.147 27.48 168.147 28.04V34.68C168.147 35.8 167.934 36.5467 167.507 36.92C167.081 37.32 166.281 37.52 165.107 37.52H148.347C147.707 37.52 147.187 37.48 146.787 37.4C146.414 37.32 146.107 37.16 145.867 36.92C145.654 36.7067 145.507 36.4133 145.427 36.04C145.347 35.6933 145.307 35.24 145.307 34.68V28.04ZM154.587 12.68C153.014 12.8133 151.347 12.9067 149.587 12.96C147.827 12.9867 146.241 12.9733 144.827 12.92H143.147V17.76C143.147 18.16 143.214 18.44 143.347 18.6C143.481 18.7333 143.734 18.8 144.107 18.8C146.481 18.8533 148.827 18.7867 151.147 18.6C153.467 18.3867 155.707 18.08 157.867 17.68C158.321 17.6 158.587 17.7467 158.667 18.12L158.867 19.28C158.921 19.52 158.907 19.6933 158.827 19.8C158.747 19.88 158.587 19.9467 158.347 20C157.254 20.2133 156.094 20.4133 154.867 20.6C153.667 20.76 152.427 20.8933 151.147 21C149.867 21.08 148.574 21.1467 147.267 21.2C145.987 21.2533 144.734 21.2667 143.507 21.24C142.307 21.2133 141.481 20.9467 141.027 20.44C140.601 19.9067 140.387 19.08 140.387 17.96V5.48C140.387 4.36 140.601 3.61333 141.027 3.24C141.454 2.86666 142.254 2.68 143.427 2.68H155.267C155.614 2.68 155.787 2.84 155.787 3.16V4.6C155.787 4.92 155.614 5.08 155.267 5.08H143.947C143.574 5.08 143.347 5.13333 143.267 5.24C143.187 5.32 143.147 5.56 143.147 5.96V10.6H144.827C145.494 10.6 146.227 10.6 147.027 10.6C147.827 10.6 148.641 10.5867 149.467 10.56C150.321 10.5333 151.174 10.5067 152.027 10.48C152.907 10.4533 153.747 10.4133 154.547 10.36C154.707 10.3333 154.827 10.3733 154.907 10.48C155.014 10.5867 155.067 10.7067 155.067 10.84L155.107 12.2C155.107 12.4667 154.934 12.6267 154.587 12.68ZM149.027 27.6C148.654 27.6 148.401 27.68 148.267 27.84C148.134 27.9733 148.067 28.24 148.067 28.64V34.08C148.067 34.48 148.134 34.7467 148.267 34.88C148.401 35.04 148.654 35.12 149.027 35.12H164.427C164.801 35.12 165.054 35.04 165.187 34.88C165.321 34.7467 165.387 34.48 165.387 34.08V28.64C165.387 28.24 165.321 27.9733 165.187 27.84C165.054 27.68 164.801 27.6 164.427 27.6H149.027ZM165.387 10.64V1.52C165.387 1.14667 165.574 0.959999 165.947 0.959999H167.587C167.961 0.959999 168.147 1.14667 168.147 1.52V22.48C168.147 22.8533 167.961 23.04 167.587 23.04H165.947C165.574 23.04 165.387 22.8533 165.387 22.48V13.04H158.707C158.361 13.04 158.187 12.88 158.187 12.56V11.12C158.187 10.8 158.361 10.64 158.707 10.64H165.387ZM197.455 37.52C196.815 37.52 196.295 37.48 195.895 37.4C195.522 37.32 195.229 37.16 195.015 36.92C194.802 36.7067 194.655 36.4133 194.575 36.04C194.495 35.6933 194.455 35.24 194.455 34.68V23.44C194.455 23.3067 194.509 23.2 194.615 23.12C194.722 23.04 194.842 23 194.975 23H196.735C196.869 23 196.975 23.0533 197.055 23.16C197.162 23.24 197.215 23.3333 197.215 23.44V27.68H215.535V23.52C215.535 23.3867 215.575 23.2667 215.655 23.16C215.762 23.0533 215.882 23 216.015 23H217.775C217.909 23 218.029 23.0533 218.135 23.16C218.242 23.24 218.295 23.3467 218.295 23.48V34.96C218.295 35.9733 218.082 36.6533 217.655 37C217.229 37.3467 216.429 37.52 215.255 37.52H197.455ZM188.015 5.48C188.015 4.36 188.229 3.61333 188.655 3.24C189.082 2.84 189.882 2.64 191.055 2.64H200.175C200.815 2.64 201.322 2.68 201.695 2.76C202.095 2.84 202.402 2.98666 202.615 3.2C202.855 3.41333 203.015 3.70667 203.095 4.08C203.175 4.45333 203.215 4.92 203.215 5.48V16.28C203.215 17.4 203.002 18.16 202.575 18.56C202.149 18.9333 201.349 19.12 200.175 19.12H191.055C190.415 19.12 189.895 19.08 189.495 19C189.122 18.92 188.815 18.7733 188.575 18.56C188.362 18.32 188.215 18.0267 188.135 17.68C188.055 17.3067 188.015 16.84 188.015 16.28V5.48ZM210.575 10.56H215.655V1.52C215.655 1.14667 215.842 0.959999 216.215 0.959999H217.735C218.109 0.959999 218.295 1.14667 218.295 1.52V20.4C218.295 20.7733 218.109 20.96 217.735 20.96H216.215C215.842 20.96 215.655 20.7733 215.655 20.4V12.96H210.575V19.88C210.575 20.2533 210.389 20.44 210.015 20.44H208.495C208.122 20.44 207.935 20.2533 207.935 19.88V2.2C207.935 1.82667 208.122 1.64 208.495 1.64H210.015C210.389 1.64 210.575 1.82667 210.575 2.2V10.56ZM191.735 5.04C191.362 5.04 191.109 5.12 190.975 5.28C190.842 5.41333 190.775 5.68 190.775 6.08V15.68C190.775 16.08 190.842 16.36 190.975 16.52C191.109 16.6533 191.362 16.72 191.735 16.72H199.495C199.869 16.72 200.122 16.6533 200.255 16.52C200.389 16.36 200.455 16.08 200.455 15.68V6.08C200.455 5.68 200.389 5.41333 200.255 5.28C200.122 5.12 199.869 5.04 199.495 5.04H191.735ZM197.215 30.08V34.16C197.215 34.56 197.282 34.8133 197.415 34.92C197.549 35.0533 197.802 35.12 198.175 35.12H214.575C214.949 35.12 215.202 35.0533 215.335 34.92C215.469 34.8133 215.535 34.56 215.535 34.16V30.08H197.215ZM261.764 10.36C261.15 11 260.324 11.6667 259.284 12.36C258.244 13.0533 257.057 13.7467 255.724 14.44C256.524 14.68 257.39 14.9467 258.324 15.24C259.284 15.5333 260.244 15.8133 261.204 16.08C262.164 16.3467 263.097 16.6 264.004 16.84C264.91 17.0533 265.71 17.2267 266.404 17.36C266.75 17.44 266.87 17.6267 266.764 17.92L266.284 19.36C266.204 19.6533 265.964 19.76 265.564 19.68C264.79 19.52 263.87 19.3067 262.804 19.04C261.737 18.7467 260.617 18.4267 259.444 18.08C258.27 17.7333 257.084 17.3733 255.884 17C254.71 16.6267 253.604 16.2667 252.564 15.92C250.35 16.88 248.03 17.7467 245.604 18.52C243.177 19.2667 240.91 19.8 238.804 20.12C238.564 20.1733 238.39 20.1733 238.284 20.12C238.204 20.0667 238.137 19.9333 238.084 19.72L237.724 18.44C237.67 18.2267 237.67 18.0667 237.724 17.96C237.804 17.8533 237.91 17.7867 238.044 17.76C239.644 17.4933 241.404 17.08 243.324 16.52C245.27 15.96 247.177 15.32 249.044 14.6C250.937 13.88 252.71 13.1067 254.364 12.28C256.044 11.4533 257.417 10.64 258.484 9.84C258.777 9.62666 258.95 9.4 259.004 9.16C259.057 8.89333 258.87 8.76 258.444 8.76H241.164C240.817 8.76 240.644 8.58666 240.644 8.24V6.84C240.644 6.52 240.817 6.36 241.164 6.36H259.524C263.524 6.36 264.27 7.69333 261.764 10.36ZM251.444 37.6C251.31 37.6 251.19 37.5333 251.084 37.4C250.977 37.2933 250.924 37.16 250.924 37V25.84H235.404C235.244 25.84 235.097 25.7867 234.964 25.68C234.857 25.5733 234.804 25.4533 234.804 25.32V23.96C234.804 23.8 234.857 23.68 234.964 23.6C235.097 23.4933 235.244 23.44 235.404 23.44H269.404C269.537 23.44 269.67 23.4933 269.804 23.6C269.937 23.68 270.004 23.8 270.004 23.96V25.32C270.004 25.4533 269.937 25.5733 269.804 25.68C269.67 25.7867 269.537 25.84 269.404 25.84H253.684V37C253.684 37.16 253.63 37.2933 253.524 37.4C253.444 37.5333 253.324 37.6 253.164 37.6H251.444ZM257.444 0.959999C257.844 0.959999 258.044 1.14667 258.044 1.52V2.8C258.044 3.2 257.844 3.4 257.444 3.4H246.684C246.284 3.4 246.084 3.2 246.084 2.8V1.52C246.084 1.14667 246.284 0.959999 246.684 0.959999H257.444ZM291.501 6.84C291.367 9.13333 290.914 11.3867 290.141 13.6C289.367 15.8133 288.287 17.9333 286.901 19.96C285.541 21.96 283.887 23.8267 281.941 25.56C280.021 27.2667 277.834 28.7733 275.381 30.08C275.034 30.2667 274.781 30.2267 274.621 29.96L273.741 28.56C273.554 28.24 273.607 28.0133 273.901 27.88C276.167 26.7067 278.167 25.3733 279.901 23.88C281.661 22.36 283.154 20.72 284.381 18.96C285.634 17.2 286.621 15.3467 287.341 13.4C288.061 11.4533 288.514 9.45333 288.701 7.4C288.754 7 288.701 6.73333 288.541 6.6C288.381 6.44 288.114 6.36 287.741 6.36H275.341C275.021 6.36 274.861 6.18666 274.861 5.84V4.44C274.861 4.12 275.021 3.96 275.341 3.96H288.501C289.754 3.96 290.581 4.2 290.981 4.68C291.381 5.13333 291.554 5.85333 291.501 6.84ZM302.021 37.28C302.021 37.6533 301.834 37.84 301.461 37.84H299.821C299.447 37.84 299.261 37.6533 299.261 37.28V1.52C299.261 1.14667 299.447 0.959999 299.821 0.959999H301.461C301.834 0.959999 302.021 1.14667 302.021 1.52V15.68H307.541C307.701 15.68 307.834 15.7333 307.941 15.84C308.074 15.92 308.141 16.04 308.141 16.2V17.56C308.141 17.6933 308.074 17.8133 307.941 17.92C307.834 18.0267 307.701 18.08 307.541 18.08H302.021V37.28ZM330.998 22.6C330.998 23.6933 330.771 24.7067 330.318 25.64C329.891 26.5733 329.291 27.4 328.518 28.12C327.745 28.8133 326.825 29.36 325.758 29.76C324.691 30.16 323.545 30.36 322.318 30.36C321.065 30.36 319.905 30.16 318.838 29.76C317.798 29.36 316.891 28.8133 316.118 28.12C315.345 27.4267 314.731 26.6133 314.278 25.68C313.851 24.72 313.638 23.6933 313.638 22.6C313.638 21.48 313.851 20.4533 314.278 19.52C314.731 18.56 315.345 17.7333 316.118 17.04C316.891 16.3467 317.798 15.8 318.838 15.4C319.905 15 321.065 14.8 322.318 14.8C323.545 14.8 324.691 15.0133 325.758 15.44C326.825 15.84 327.745 16.3867 328.518 17.08C329.291 17.7733 329.891 18.6 330.318 19.56C330.771 20.52 330.998 21.5333 330.998 22.6ZM339.638 37.28C339.638 37.6533 339.451 37.84 339.078 37.84H337.438C337.065 37.84 336.878 37.6533 336.878 37.28V1.52C336.878 1.14667 337.065 0.959999 337.438 0.959999H339.078C339.451 0.959999 339.638 1.14667 339.638 1.52V16.28H345.158C345.318 16.28 345.451 16.3333 345.558 16.44C345.691 16.52 345.758 16.64 345.758 16.8V18.16C345.758 18.2933 345.691 18.4133 345.558 18.52C345.451 18.6267 345.318 18.68 345.158 18.68H339.638V37.28ZM328.278 22.6C328.278 21.8267 328.131 21.1067 327.838 20.44C327.545 19.7733 327.131 19.2 326.598 18.72C326.065 18.2133 325.425 17.8267 324.678 17.56C323.958 17.2667 323.171 17.12 322.318 17.12C321.465 17.12 320.665 17.2667 319.918 17.56C319.198 17.8267 318.571 18.2133 318.038 18.72C317.505 19.2 317.078 19.7733 316.758 20.44C316.465 21.1067 316.318 21.8267 316.318 22.6C316.318 23.3733 316.465 24.0933 316.758 24.76C317.078 25.4 317.505 25.9733 318.038 26.48C318.571 26.96 319.198 27.3467 319.918 27.64C320.665 27.9067 321.465 28.04 322.318 28.04C323.171 28.04 323.958 27.9067 324.678 27.64C325.425 27.3467 326.065 26.96 326.598 26.48C327.131 26 327.545 25.4267 327.838 24.76C328.131 24.0933 328.278 23.3733 328.278 22.6ZM333.998 11.44C333.998 11.7867 333.798 11.96 333.398 11.96H311.318C311.185 11.96 311.051 11.9067 310.918 11.8C310.811 11.6933 310.758 11.56 310.758 11.4V10.12C310.758 9.96 310.811 9.82666 310.918 9.72C311.051 9.61333 311.185 9.56 311.318 9.56H333.398C333.798 9.56 333.998 9.73333 333.998 10.08V11.44ZM328.158 4.64C328.158 5.01333 327.958 5.2 327.558 5.2H316.598C316.465 5.2 316.331 5.16 316.198 5.08C316.091 4.97333 316.038 4.84 316.038 4.68V3.32C316.038 3.16 316.091 3.02666 316.198 2.92C316.305 2.81333 316.425 2.76 316.558 2.76H327.558C327.958 2.76 328.158 2.94667 328.158 3.32V4.64ZM378.655 37.28C378.655 37.6533 378.468 37.84 378.095 37.84H376.455C376.082 37.84 375.895 37.6533 375.895 37.28V1.52C375.895 1.14667 376.082 0.959999 376.455 0.959999H378.095C378.468 0.959999 378.655 1.14667 378.655 1.52V37.28ZM367.935 6.84C367.802 9.13333 367.348 11.3867 366.575 13.6C365.802 15.8133 364.722 17.9333 363.335 19.96C361.975 21.96 360.322 23.8267 358.375 25.56C356.455 27.2667 354.268 28.7733 351.815 30.08C351.468 30.2667 351.215 30.2267 351.055 29.96L350.175 28.56C349.988 28.24 350.042 28.0133 350.335 27.88C352.602 26.7067 354.602 25.3733 356.335 23.88C358.095 22.36 359.588 20.72 360.815 18.96C362.068 17.2 363.055 15.3467 363.775 13.4C364.495 11.4533 364.948 9.45333 365.135 7.4C365.188 7 365.135 6.73333 364.975 6.6C364.815 6.44 364.548 6.36 364.175 6.36H351.455C351.135 6.36 350.975 6.18666 350.975 5.84V4.44C350.975 4.12 351.135 3.96 351.455 3.96H364.935C366.188 3.96 367.015 4.2 367.415 4.68C367.815 5.13333 367.988 5.85333 367.935 6.84Z" fill="black"/>
</svg>
