<svg width="264" height="246" viewBox="0 0 264 246" fill="none" xmlns="http://www.w3.org/2000/svg">
<path d="M17.3665 231.614C16.5298 229.534 15.723 227.484 14.9462 225.464C14.1894 223.424 13.3927 221.364 12.556 219.284C11.7127 221.364 10.8794 223.424 10.0562 225.464C9.25301 227.484 8.42976 229.534 7.58646 231.614H17.3665ZM22.5747 239.054C22.6742 239.334 22.584 239.474 22.304 239.474H20.864C20.744 239.474 20.634 239.454 20.5341 239.414C20.4542 239.374 20.3743 239.254 20.2947 239.054L18.0834 233.534H6.80341C6.42192 234.474 6.05046 235.394 5.68904 236.294C5.32761 237.194 4.96615 238.114 4.60466 239.054C4.52434 239.254 4.43415 239.374 4.33409 239.414C4.25402 239.454 4.15399 239.474 4.03399 239.474H2.62399C2.34399 239.474 2.25422 239.334 2.35466 239.054L11.2087 217.574C11.3091 217.334 11.4893 217.214 11.7493 217.214H13.5793C13.8393 217.214 14.0191 217.334 14.1187 217.574L22.5747 239.054ZM40.6688 228.194C40.6738 225.014 39.7975 222.664 38.0399 221.144C36.4821 219.804 34.3431 219.134 31.6231 219.134H28.3831L28.3539 237.584H30.1839C37.1639 237.584 40.6588 234.454 40.6688 228.194ZM42.8586 228.314C42.8556 230.174 42.533 231.834 41.8907 233.294C41.2484 234.754 40.3564 235.964 39.2149 236.924C38.1336 237.744 36.8226 238.374 35.2819 238.814C33.7412 239.254 32.0009 239.474 30.0609 239.474H26.9709C26.5509 239.474 26.3009 239.444 26.221 239.384C26.1611 239.304 26.1315 239.054 26.1322 238.634L26.1647 218.114C26.1654 217.694 26.1958 217.454 26.2559 217.394C26.336 217.314 26.5861 217.274 27.0061 217.274H31.7161C35.5161 217.274 38.3744 218.304 40.2912 220.364C42.0082 222.264 42.864 224.914 42.8586 228.314ZM64.5953 228.374C64.5973 227.114 64.4392 225.924 64.121 224.804C63.8028 223.684 63.3544 222.674 62.7758 221.774C62.0774 220.794 61.2386 220.044 60.2594 219.524C59.3002 218.984 58.2107 218.714 56.9907 218.714C55.7507 218.714 54.6402 218.984 53.6594 219.524C52.6986 220.044 51.8674 220.794 51.1658 221.774C50.5844 222.674 50.1328 223.684 49.811 224.804C49.4892 225.924 49.3273 227.114 49.3253 228.374C49.3233 229.634 49.4814 230.834 49.7996 231.974C50.1179 233.094 50.5663 234.104 51.1448 235.004C51.8633 235.964 52.7121 236.714 53.6913 237.254C54.6704 237.794 55.76 238.064 56.96 238.064C58.18 238.064 59.2704 237.804 60.2312 237.284C61.2121 236.744 62.0533 235.984 62.7548 235.004C63.3363 234.104 63.7879 233.094 64.1096 231.974C64.4314 230.834 64.5933 229.634 64.5953 228.374ZM66.7853 228.374C66.7397 231.934 65.9153 234.714 64.3121 236.714C62.5687 238.874 60.117 239.954 56.957 239.954C53.797 239.954 51.3387 238.874 49.5821 236.714C47.9454 234.654 47.1298 231.874 47.1353 228.374C47.138 226.714 47.3404 225.214 47.7425 223.874C48.1446 222.534 48.7265 221.344 49.4881 220.304C50.3899 219.204 51.4712 218.354 52.7322 217.754C54.0132 217.134 55.4337 216.824 56.9937 216.824C58.5737 216.824 59.9832 217.124 61.2222 217.724C62.4813 218.324 63.5599 219.194 64.4581 220.334C65.2364 221.414 65.8245 222.624 66.2223 223.964C66.6202 225.284 66.8079 226.754 66.7853 228.374ZM73.6417 239.054C73.6412 239.334 73.501 239.474 73.221 239.474H71.841C71.561 239.474 71.4212 239.334 71.4217 239.054L71.4548 218.144C71.4555 217.704 71.4859 217.454 71.546 217.394C71.6262 217.314 71.8862 217.274 72.3262 217.274H82.3462C82.6262 217.274 82.766 217.414 82.7656 217.694L82.7639 218.714C82.7635 218.994 82.6233 219.134 82.3433 219.134H73.6733L73.6607 227.084H81.9107C82.1907 227.084 82.3304 227.224 82.33 227.504L82.3283 228.584C82.3278 228.864 82.1876 229.004 81.9076 229.004H73.6576L73.6417 239.054ZM99.6614 231.614C98.8247 229.534 98.0179 227.484 97.2411 225.464C96.4844 223.424 95.6876 221.364 94.8509 219.284C94.0076 221.364 93.1744 223.424 92.3511 225.464C91.5479 227.484 90.7247 229.534 89.8814 231.614H99.6614ZM104.87 239.054C104.969 239.334 104.879 239.474 104.599 239.474H103.159C103.039 239.474 102.929 239.454 102.829 239.414C102.749 239.374 102.669 239.254 102.59 239.054L100.378 233.534H89.0983C88.7168 234.474 88.3454 235.394 87.984 236.294C87.6225 237.194 87.2611 238.114 86.8996 239.054C86.8193 239.254 86.7291 239.374 86.629 239.414C86.5489 239.454 86.4489 239.474 86.3289 239.474H84.9189C84.6389 239.474 84.5491 239.334 84.6496 239.054L93.5036 217.574C93.604 217.334 93.7842 217.214 94.0442 217.214H95.8742C96.1342 217.214 96.314 217.334 96.4136 217.574L104.87 239.054ZM110.584 240.374C110.584 240.654 110.444 240.794 110.164 240.794H108.724C108.444 240.794 108.304 240.654 108.304 240.374L108.338 219.014C108.339 218.734 108.479 218.594 108.759 218.594H110.199C110.479 218.594 110.619 218.734 110.618 219.014L110.584 240.374ZM145.426 241.964C145.425 242.244 145.285 242.384 145.005 242.384H143.775C143.495 242.384 143.355 242.244 143.356 241.964L143.398 215.144C143.399 214.864 143.539 214.724 143.819 214.724H145.049C145.329 214.724 145.469 214.864 145.468 215.144L145.426 241.964ZM126.777 234.524C126.297 234.524 125.908 234.494 125.608 234.434C125.328 234.374 125.108 234.264 124.948 234.104C124.788 233.924 124.679 233.704 124.619 233.444C124.56 233.164 124.53 232.814 124.531 232.394L124.556 216.614C124.556 216.514 124.596 216.434 124.676 216.374C124.756 216.294 124.846 216.254 124.946 216.254H126.236C126.336 216.254 126.416 216.294 126.476 216.374C126.556 216.454 126.596 216.534 126.596 216.614L126.585 223.574H135.885L135.896 216.644C135.896 216.544 135.926 216.454 135.986 216.374C136.066 216.294 136.156 216.254 136.256 216.254H137.546C137.646 216.254 137.736 216.294 137.816 216.374C137.896 216.434 137.936 216.514 137.936 216.614L137.911 232.604C137.909 233.364 137.748 233.874 137.428 234.134C137.108 234.394 136.507 234.524 135.627 234.524H126.777ZM126.582 225.344L126.571 232.034C126.571 232.334 126.621 232.534 126.72 232.634C126.82 232.714 127.01 232.754 127.29 232.754H135.15C135.43 232.754 135.62 232.714 135.72 232.634C135.821 232.534 135.871 232.334 135.871 232.034L135.882 225.344H126.582ZM172.866 237.044C172.865 238.024 172.583 238.864 172.022 239.564C171.461 240.264 170.73 240.834 169.83 241.274C168.949 241.714 167.948 242.034 166.828 242.234C165.708 242.454 164.598 242.564 163.498 242.564C162.418 242.564 161.318 242.454 160.198 242.234C159.098 242.034 158.099 241.714 157.2 241.274C156.3 240.834 155.571 240.264 155.012 239.564C154.453 238.864 154.175 238.024 154.176 237.044C154.178 236.084 154.459 235.254 155.02 234.554C155.581 233.854 156.312 233.284 157.213 232.844C158.114 232.384 159.114 232.044 160.215 231.824C161.335 231.604 162.435 231.494 163.515 231.494C164.635 231.494 165.745 231.604 166.845 231.824C167.964 232.024 168.964 232.354 169.843 232.814C170.742 233.254 171.471 233.824 172.03 234.524C172.589 235.224 172.868 236.064 172.866 237.044ZM170.676 237.074C170.677 236.414 170.438 235.854 169.959 235.394C169.5 234.934 168.91 234.554 168.191 234.254C167.471 233.954 166.692 233.734 165.852 233.594C165.012 233.454 164.232 233.384 163.512 233.384C162.752 233.384 161.952 233.454 161.112 233.594C160.272 233.734 159.501 233.954 158.801 234.254C158.1 234.554 157.52 234.934 157.059 235.394C156.598 235.854 156.367 236.414 156.366 237.074C156.365 237.714 156.594 238.264 157.054 238.724C157.513 239.184 158.092 239.554 158.792 239.834C159.491 240.134 160.261 240.344 161.101 240.464C161.941 240.604 162.741 240.674 163.501 240.674C164.241 240.674 165.031 240.604 165.871 240.464C166.711 240.344 167.481 240.134 168.182 239.834C168.902 239.554 169.493 239.184 169.954 238.724C170.434 238.264 170.675 237.714 170.676 237.074ZM163.17 221.894C163.27 221.894 163.36 221.944 163.44 222.044C163.52 222.124 163.56 222.224 163.56 222.344L163.552 227.384H176.332C176.432 227.384 176.532 227.424 176.631 227.504C176.731 227.564 176.781 227.654 176.781 227.774L176.779 228.794C176.779 228.894 176.729 228.984 176.629 229.064C176.529 229.144 176.429 229.184 176.329 229.184H150.829C150.709 229.184 150.599 229.144 150.499 229.064C150.419 228.984 150.379 228.894 150.379 228.794L150.381 227.774C150.381 227.654 150.421 227.564 150.501 227.504C150.602 227.424 150.712 227.384 150.832 227.384H161.542L161.55 222.344C161.55 222.224 161.58 222.124 161.64 222.044C161.72 221.944 161.82 221.894 161.94 221.894H163.17ZM154.45 215.714C154.45 215.594 154.501 215.504 154.601 215.444C154.701 215.384 154.801 215.354 154.901 215.354H170.411C170.891 215.354 171.271 215.404 171.551 215.504C171.85 215.604 172.08 215.754 172.24 215.954C172.4 216.134 172.509 216.374 172.569 216.674C172.648 216.974 172.688 217.334 172.687 217.754C172.686 218.354 172.665 218.994 172.624 219.674C172.583 220.354 172.522 221.024 172.441 221.684C172.36 222.344 172.259 222.984 172.138 223.604C172.037 224.204 171.936 224.734 171.835 225.194C171.795 225.314 171.735 225.424 171.655 225.524C171.594 225.624 171.504 225.664 171.384 225.644L170.185 225.554C169.845 225.534 169.725 225.354 169.825 225.014C169.946 224.574 170.057 224.044 170.158 223.424C170.259 222.784 170.35 222.134 170.431 221.474C170.512 220.794 170.563 220.134 170.584 219.494C170.625 218.834 170.646 218.264 170.647 217.784C170.647 217.504 170.598 217.334 170.498 217.274C170.418 217.194 170.238 217.154 169.958 217.154H154.898C154.798 217.154 154.698 217.124 154.598 217.064C154.498 216.984 154.448 216.894 154.448 216.794L154.45 215.714ZM188.693 215.954C188.69 217.414 188.538 218.774 188.236 220.034C188.475 220.874 188.804 221.674 189.222 222.434C189.661 223.194 190.17 223.904 190.749 224.564C191.328 225.224 191.957 225.824 192.636 226.364C193.335 226.884 194.065 227.324 194.824 227.684C194.944 227.744 194.994 227.834 194.974 227.954C194.973 228.054 194.953 228.144 194.913 228.224L194.282 229.214C194.222 229.314 194.151 229.384 194.071 229.424C193.991 229.464 193.861 229.434 193.681 229.334C193.222 229.094 192.692 228.774 192.093 228.374C191.514 227.954 190.924 227.464 190.325 226.904C189.726 226.344 189.157 225.734 188.618 225.074C188.079 224.394 187.63 223.694 187.272 222.974C186.609 224.494 185.717 225.874 184.595 227.114C183.473 228.354 182.161 229.464 180.66 230.444C180.56 230.504 180.45 230.544 180.33 230.564C180.209 230.584 180.11 230.544 180.03 230.444L179.281 229.454C179.241 229.374 179.232 229.274 179.252 229.154C179.292 229.034 179.362 228.944 179.462 228.884C181.844 227.424 183.637 225.584 184.841 223.364C186.044 221.144 186.628 218.664 186.593 215.924C186.593 215.604 186.713 215.444 186.953 215.444L188.363 215.534C188.583 215.534 188.693 215.674 188.693 215.954ZM184.346 232.724C184.346 232.604 184.396 232.514 184.497 232.454C184.597 232.394 184.697 232.364 184.797 232.364H199.557C200.497 232.364 201.106 232.544 201.386 232.904C201.685 233.244 201.834 233.824 201.833 234.644L201.821 242.084C201.821 242.364 201.681 242.504 201.401 242.504H200.171C199.891 242.504 199.751 242.364 199.751 242.084L199.763 234.794C199.763 234.514 199.714 234.344 199.614 234.284C199.534 234.204 199.354 234.164 199.074 234.164H184.794C184.694 234.164 184.594 234.134 184.494 234.074C184.394 233.994 184.344 233.904 184.344 233.804L184.346 232.724ZM201.84 230.294C201.84 230.574 201.699 230.714 201.419 230.714H200.189C199.909 230.714 199.77 230.574 199.77 230.294L199.794 215.144C199.794 214.864 199.935 214.724 200.215 214.724H201.445C201.725 214.724 201.864 214.864 201.864 215.144L201.84 230.294ZM230.115 229.154C230.114 229.414 229.964 229.544 229.664 229.544H220.964L220.954 235.844H232.744C232.844 235.844 232.944 235.884 233.044 235.964C233.144 236.024 233.194 236.114 233.193 236.234L233.192 237.254C233.192 237.354 233.141 237.444 233.041 237.524C232.941 237.604 232.841 237.644 232.741 237.644H207.241C207.121 237.644 207.011 237.604 206.911 237.524C206.831 237.444 206.792 237.354 206.792 237.254L206.793 236.234C206.794 236.114 206.834 236.024 206.914 235.964C207.014 235.884 207.124 235.844 207.244 235.844H218.884L218.894 229.544H209.984C209.884 229.544 209.784 229.504 209.684 229.424C209.604 229.344 209.565 229.244 209.565 229.124L209.566 228.194C209.566 228.074 209.607 227.974 209.687 227.894C209.787 227.814 209.887 227.774 209.987 227.774H213.977L213.992 218.444H210.602C210.502 218.444 210.402 218.404 210.302 218.324C210.222 218.244 210.182 218.144 210.182 218.024L210.184 217.094C210.184 216.974 210.224 216.874 210.304 216.794C210.404 216.714 210.504 216.674 210.604 216.674H229.084C229.384 216.674 229.534 216.804 229.534 217.064L229.532 218.054C229.532 218.314 229.382 218.444 229.082 218.444H225.842L225.827 227.774H229.667C229.967 227.774 230.117 227.904 230.116 228.164L230.115 229.154ZM216.017 227.774H223.787L223.802 218.444H216.032L216.017 227.774ZM241.128 235.034C241.13 234.194 241.29 233.634 241.611 233.354C241.931 233.054 242.532 232.904 243.412 232.904H255.982C256.462 232.904 256.842 232.934 257.121 232.994C257.421 233.054 257.651 233.164 257.811 233.324C257.991 233.484 258.11 233.704 258.17 233.984C258.229 234.264 258.259 234.614 258.258 235.034L258.25 240.014C258.249 240.854 258.088 241.414 257.768 241.694C257.447 241.994 256.847 242.144 255.967 242.144H243.397C242.917 242.144 242.527 242.114 242.227 242.054C241.947 241.994 241.717 241.874 241.538 241.694C241.378 241.534 241.268 241.314 241.209 241.034C241.149 240.774 241.12 240.434 241.12 240.014L241.128 235.034ZM239.727 229.724C238.827 229.704 238.217 229.524 237.897 229.184C237.598 228.844 237.449 228.254 237.45 227.414L237.456 223.874C237.457 223.034 237.628 222.474 237.969 222.194C238.329 221.894 238.959 221.744 239.859 221.744H245.979C246.259 221.744 246.439 221.704 246.519 221.624C246.6 221.544 246.64 221.354 246.64 221.054L246.645 218.354C246.645 218.054 246.605 217.864 246.526 217.784C246.466 217.704 246.296 217.664 246.016 217.664H237.946C237.706 217.664 237.586 217.534 237.586 217.274L237.588 216.224C237.588 215.984 237.709 215.864 237.949 215.864H246.349C246.829 215.864 247.219 215.904 247.518 215.984C247.818 216.044 248.058 216.154 248.238 216.314C248.418 216.474 248.537 216.704 248.597 217.004C248.676 217.284 248.716 217.634 248.715 218.054L248.71 221.414C248.708 222.254 248.528 222.824 248.167 223.124C247.827 223.404 247.206 223.544 246.306 223.544H240.156C239.876 223.544 239.696 223.584 239.616 223.664C239.556 223.744 239.526 223.934 239.525 224.234L239.521 227.264C239.52 227.724 239.739 227.954 240.179 227.954C241.119 227.954 242.009 227.944 242.849 227.924C243.71 227.904 244.54 227.864 245.34 227.804C246.16 227.724 246.97 227.634 247.77 227.534C248.59 227.414 249.441 227.274 250.321 227.114C250.521 227.074 250.651 227.074 250.711 227.114C250.791 227.154 250.851 227.254 250.89 227.414L251.069 228.374C251.108 228.554 251.088 228.674 251.008 228.734C250.948 228.794 250.828 228.844 250.648 228.884C248.967 229.204 247.267 229.434 245.547 229.574C243.827 229.714 241.887 229.764 239.727 229.724ZM243.919 234.704C243.639 234.704 243.449 234.764 243.348 234.884C243.248 234.984 243.198 235.184 243.197 235.484L243.191 239.564C243.191 239.864 243.24 240.064 243.34 240.164C243.44 240.284 243.63 240.344 243.91 240.344H255.46C255.74 240.344 255.93 240.284 256.03 240.164C256.13 240.064 256.181 239.864 256.181 239.564L256.187 235.484C256.188 235.184 256.138 234.984 256.038 234.884C255.939 234.764 255.749 234.704 255.469 234.704H243.919ZM256.209 221.984L256.22 215.144C256.22 214.864 256.36 214.724 256.64 214.724H257.87C258.15 214.724 258.29 214.864 258.29 215.144L258.265 230.894C258.264 231.174 258.124 231.314 257.844 231.314H256.614C256.334 231.314 256.194 231.174 256.195 230.894L256.206 223.784H251.076C250.816 223.784 250.686 223.664 250.687 223.424L250.688 222.344C250.689 222.104 250.819 221.984 251.079 221.984H256.209Z" fill="black"/>
<rect x="68" y="1" width="129" height="177" rx="10" fill="#00AC47"/>
<rect x="152" width="45" height="45" fill="white"/>
<path d="M152 45V1L197 45H152Z" fill="#00832D"/>
<path d="M168 76H98V121.5H168V76Z" stroke="white" stroke-width="9"/>
<path d="M98 99.5H167.5" stroke="white" stroke-width="9"/>
<path d="M133 76V121.5" stroke="white" stroke-width="9"/>
</svg>
