<svg width="255" height="254" viewBox="0 0 255 254" fill="none" xmlns="http://www.w3.org/2000/svg">
<path d="M37.1999 239.698C37.3661 239.998 37.449 240.281 37.4485 240.548C37.4815 240.781 37.4145 240.998 37.2475 241.198C37.1139 241.365 36.8803 241.531 36.5467 241.698C36.013 241.931 35.5797 241.948 35.2466 241.748C34.9469 241.581 34.6807 241.265 34.4481 240.798L20.6952 211.098L6.89831 240.698C6.66418 241.198 6.38032 241.531 6.04672 241.698C5.74646 241.865 5.31315 241.848 4.7468 241.648C4.41368 241.515 4.18061 241.348 4.04759 241.148C3.91463 240.915 3.88175 240.631 3.94894 240.298C4.01614 239.965 4.15008 239.581 4.35077 239.148L19.3504 207.848C19.4842 207.581 19.6678 207.365 19.9014 207.198C20.1684 207.031 20.4518 206.948 20.7518 206.948C20.9518 206.948 21.1351 206.981 21.3017 207.048C21.4682 207.115 21.6181 207.215 21.7512 207.348C21.8843 207.481 22.0007 207.665 22.1003 207.898L37.1999 239.698ZM10.7638 230.948L11.7677 228.448H29.6677L30.6138 230.948H10.7638ZM43.5051 241.848C43.2051 241.848 42.9385 241.781 42.7054 241.648C42.5056 241.515 42.3392 241.331 42.2063 241.098C42.1066 240.865 42.0571 240.598 42.0575 240.298L42.1081 208.398C42.1086 208.065 42.1591 207.798 42.2594 207.598C42.3931 207.365 42.5767 207.198 42.8102 207.098C43.0437 206.965 43.3105 206.898 43.6105 206.898L53.8604 206.948C56.3604 206.948 58.5931 207.348 60.5585 208.148C62.5573 208.915 64.2388 210.048 65.6031 211.548C67.0008 213.015 68.0479 214.815 68.7446 216.948C69.4745 219.081 69.8373 221.498 69.8331 224.198C69.8287 226.965 69.4581 229.448 68.7212 231.648C67.9845 233.815 66.9149 235.665 65.5124 237.198C64.1434 238.698 62.4582 239.848 60.457 240.648C58.4557 241.448 56.1884 241.848 53.6551 241.848H43.5051ZM45.0098 238.848H53.8098C56.5432 238.848 58.8774 238.281 60.8125 237.148C62.7477 235.981 64.2337 234.331 65.2704 232.198C66.3071 230.031 66.8279 227.448 66.8327 224.448C66.8375 221.415 66.3249 218.815 65.295 216.648C64.2651 214.481 62.7678 212.831 60.8029 211.698C58.8714 210.531 56.539 209.948 53.8057 209.948H45.0557L45.0098 238.848ZM92.0598 242.098C89.6931 242.098 87.4771 241.648 85.4119 240.748C83.3467 239.848 81.5153 238.598 79.9178 236.998C78.3537 235.398 77.1233 233.548 76.2266 231.448C75.3633 229.348 74.9335 227.098 74.9373 224.698C74.9413 222.231 75.3783 219.915 76.2484 217.748C77.1185 215.581 78.3215 213.681 79.8574 212.048C81.3933 210.415 83.162 209.131 85.1635 208.198C87.1983 207.265 89.3657 206.798 91.6657 206.798C94.0324 206.798 96.2484 207.248 98.3136 208.148C100.379 209.048 102.177 210.315 103.708 211.948C105.272 213.548 106.485 215.431 107.349 217.598C108.245 219.731 108.692 222.031 108.688 224.498C108.684 226.898 108.247 229.165 107.377 231.298C106.507 233.398 105.304 235.265 103.768 236.898C102.232 238.531 100.463 239.815 98.4619 240.748C96.4605 241.648 94.3264 242.098 92.0598 242.098ZM91.7645 239.098C93.6978 239.098 95.4984 238.731 97.1663 237.998C98.8675 237.231 100.352 236.181 101.621 234.848C102.89 233.481 103.876 231.915 104.579 230.148C105.315 228.381 105.685 226.481 105.688 224.448C105.691 222.448 105.327 220.565 104.597 218.798C103.9 217.031 102.902 215.481 101.604 214.148C100.34 212.781 98.8746 211.715 97.2092 210.948C95.5437 210.181 93.761 209.798 91.861 209.798C89.961 209.798 88.1604 210.181 86.4592 210.948C84.7913 211.715 83.3063 212.765 82.0042 214.098C80.7354 215.431 79.7329 216.998 78.9967 218.798C78.2939 220.565 77.9409 222.465 77.9377 224.498C77.9345 226.498 78.2982 228.381 79.0287 230.148C79.7592 231.915 80.7568 233.465 82.0213 234.798C83.2859 236.131 84.7509 237.181 86.4163 237.948C88.0818 238.715 89.8645 239.098 91.7645 239.098ZM116.078 241.848C115.711 241.848 115.411 241.798 115.178 241.698C114.978 241.598 114.828 241.431 114.729 241.198C114.662 240.965 114.63 240.665 114.63 240.298L114.681 208.448C114.682 207.881 114.799 207.498 115.033 207.298C115.266 207.065 115.683 206.948 116.283 206.948H136.983C137.35 206.948 137.633 206.998 137.833 207.098C138.033 207.198 138.166 207.365 138.232 207.598C138.332 207.798 138.381 208.098 138.381 208.498C138.38 208.865 138.33 209.165 138.229 209.398C138.129 209.598 137.962 209.748 137.728 209.848C137.528 209.915 137.245 209.948 136.878 209.948H117.628L117.609 222.298H131.109C131.475 222.298 131.759 222.348 131.958 222.448C132.192 222.548 132.358 222.715 132.458 222.948C132.557 223.148 132.607 223.448 132.606 223.848C132.606 224.215 132.555 224.515 132.455 224.748C132.355 224.948 132.188 225.098 131.954 225.198C131.754 225.265 131.454 225.298 131.054 225.298H117.604L117.58 240.348C117.58 240.715 117.529 241.015 117.429 241.248C117.328 241.448 117.161 241.598 116.928 241.698C116.728 241.798 116.444 241.848 116.078 241.848ZM172.063 239.698C172.229 239.998 172.312 240.281 172.312 240.548C172.345 240.781 172.278 240.998 172.111 241.198C171.977 241.365 171.744 241.531 171.41 241.698C170.876 241.931 170.443 241.948 170.11 241.748C169.81 241.581 169.544 241.265 169.311 240.798L155.559 211.098L141.762 240.698C141.527 241.198 141.244 241.531 140.91 241.698C140.61 241.865 140.176 241.848 139.61 241.648C139.277 241.515 139.044 241.348 138.911 241.148C138.778 240.915 138.745 240.631 138.812 240.298C138.879 239.965 139.013 239.581 139.214 239.148L154.214 207.848C154.347 207.581 154.531 207.365 154.765 207.198C155.032 207.031 155.315 206.948 155.615 206.948C155.815 206.948 155.998 206.981 156.165 207.048C156.332 207.115 156.481 207.215 156.614 207.348C156.748 207.481 156.864 207.665 156.964 207.898L172.063 239.698ZM145.627 230.948L146.631 228.448H164.531L165.477 230.948H145.627ZM178.268 241.848C177.902 241.848 177.602 241.798 177.369 241.698C177.169 241.598 177.019 241.431 176.919 241.198C176.853 240.965 176.82 240.665 176.821 240.298L176.871 208.448C176.872 208.081 176.922 207.798 177.023 207.598C177.123 207.365 177.273 207.198 177.473 207.098C177.707 206.998 178.007 206.948 178.374 206.948C178.74 206.948 179.024 206.998 179.223 207.098C179.457 207.198 179.606 207.365 179.673 207.598C179.772 207.798 179.822 208.098 179.821 208.498L179.771 240.348C179.77 240.715 179.72 241.015 179.619 241.248C179.519 241.448 179.352 241.598 179.119 241.698C178.918 241.798 178.635 241.848 178.268 241.848ZM188.718 241.848C187.984 241.848 187.468 241.698 187.168 241.398C186.902 241.131 186.769 240.648 186.771 239.948C186.771 239.448 186.822 239.065 186.922 238.798C187.056 238.498 187.273 238.281 187.573 238.148C187.874 238.015 188.257 237.948 188.724 237.948C189.457 237.948 189.957 238.098 190.223 238.398C190.523 238.665 190.672 239.165 190.671 239.898C190.67 240.398 190.603 240.798 190.469 241.098C190.368 241.365 190.168 241.548 189.868 241.648C189.601 241.781 189.218 241.848 188.718 241.848ZM207.303 251.348C206.103 251.348 205.003 251.215 204.004 250.948C203.004 250.715 202.138 250.398 201.405 249.998C200.672 249.598 200.106 249.165 199.707 248.698C199.308 248.265 199.108 247.865 199.109 247.498C199.109 247.265 199.126 247.098 199.16 246.998C199.227 246.898 199.31 246.781 199.41 246.648C199.677 246.381 199.861 246.215 199.961 246.148C200.095 246.081 200.295 246.048 200.561 246.048C200.828 246.048 201.111 246.198 201.411 246.498C201.743 246.798 202.16 247.131 202.659 247.498C203.192 247.898 203.841 248.248 204.607 248.548C205.374 248.848 206.323 248.998 207.457 248.998C208.723 248.998 209.857 248.798 210.858 248.398C211.891 248.031 212.776 247.465 213.51 246.698C214.245 245.931 214.796 244.998 215.165 243.898C215.566 242.831 215.768 241.598 215.771 240.198L215.704 219.348C215.704 218.815 215.822 218.448 216.055 218.248C216.289 218.048 216.673 217.948 217.206 217.948C217.539 217.948 217.789 217.998 217.956 218.098C218.156 218.165 218.289 218.298 218.355 218.498C218.455 218.698 218.504 218.981 218.504 219.348L218.47 240.548C218.467 242.248 218.198 243.765 217.663 245.098C217.161 246.431 216.426 247.565 215.457 248.498C214.489 249.431 213.321 250.131 211.954 250.598C210.587 251.098 209.036 251.348 207.303 251.348ZM207.519 241.348C205.852 241.348 204.336 241.081 202.97 240.548C201.638 239.981 200.472 239.181 199.474 238.148C198.509 237.115 197.761 235.898 197.23 234.498C196.699 233.065 196.434 231.481 196.437 229.748C196.44 227.981 196.709 226.398 197.245 224.998C197.78 223.565 198.532 222.331 199.501 221.298C200.469 220.265 201.62 219.481 202.954 218.948C204.322 218.381 205.822 218.098 207.456 218.098C208.956 218.098 210.339 218.381 211.604 218.948C212.903 219.481 214.019 220.265 214.951 221.298C215.882 222.331 216.597 223.565 217.095 224.998C217.626 226.398 217.89 227.965 217.887 229.698C217.884 232.031 217.43 234.081 216.527 235.848C215.625 237.581 214.389 238.931 212.821 239.898C211.286 240.865 209.519 241.348 207.519 241.348ZM207.423 238.798C209.023 238.798 210.44 238.415 211.675 237.648C212.943 236.881 213.944 235.815 214.68 234.448C215.415 233.048 215.784 231.431 215.787 229.598C215.79 227.798 215.426 226.231 214.695 224.898C213.964 223.531 212.965 222.481 211.7 221.748C210.434 220.981 209.002 220.598 207.402 220.598C205.768 220.598 204.334 220.981 203.1 221.748C201.865 222.481 200.897 223.531 200.195 224.898C199.526 226.231 199.19 227.815 199.187 229.648C199.184 231.481 199.532 233.081 200.23 234.448C200.928 235.815 201.893 236.881 203.125 237.648C204.357 238.415 205.789 238.798 207.423 238.798ZM235.867 251.348C234.667 251.348 233.568 251.215 232.568 250.948C231.568 250.715 230.702 250.398 229.969 249.998C229.237 249.598 228.671 249.165 228.272 248.698C227.872 248.265 227.673 247.865 227.673 247.498C227.674 247.265 227.691 247.098 227.724 246.998C227.791 246.898 227.875 246.781 227.975 246.648C228.242 246.381 228.425 246.215 228.526 246.148C228.659 246.081 228.859 246.048 229.126 246.048C229.392 246.048 229.676 246.198 229.975 246.498C230.308 246.798 230.724 247.131 231.223 247.498C231.756 247.898 232.406 248.248 233.172 248.548C233.938 248.848 234.888 248.998 236.021 248.998C237.288 248.998 238.421 248.798 239.422 248.398C240.456 248.031 241.34 247.465 242.075 246.698C242.809 245.931 243.361 244.998 243.729 243.898C244.131 242.831 244.333 241.598 244.335 240.198L244.268 219.348C244.269 218.815 244.386 218.448 244.62 218.248C244.853 218.048 245.237 217.948 245.77 217.948C246.104 217.948 246.354 217.998 246.52 218.098C246.72 218.165 246.853 218.298 246.919 218.498C247.019 218.698 247.069 218.981 247.068 219.348L247.034 240.548C247.032 242.248 246.763 243.765 246.227 245.098C245.725 246.431 244.99 247.565 244.022 248.498C243.054 249.431 241.886 250.131 240.519 250.598C239.151 251.098 237.601 251.348 235.867 251.348ZM236.083 241.348C234.417 241.348 232.9 241.081 231.534 240.548C230.202 239.981 229.037 239.181 228.038 238.148C227.073 237.115 226.325 235.898 225.794 234.498C225.263 233.065 224.999 231.481 225.002 229.748C225.004 227.981 225.274 226.398 225.809 224.998C226.345 223.565 227.097 222.331 228.065 221.298C229.033 220.265 230.185 219.481 231.519 218.948C232.886 218.381 234.387 218.098 236.02 218.098C237.52 218.098 238.903 218.381 240.169 218.948C241.468 219.481 242.583 220.265 243.515 221.298C244.447 222.331 245.161 223.565 245.659 224.998C246.19 226.398 246.454 227.965 246.452 229.698C246.448 232.031 245.995 234.081 245.092 235.848C244.189 237.581 242.954 238.931 241.386 239.898C239.851 240.865 238.083 241.348 236.083 241.348ZM235.987 238.798C237.587 238.798 239.005 238.415 240.239 237.648C241.507 236.881 242.509 235.815 243.244 234.448C243.98 233.048 244.349 231.431 244.352 229.598C244.355 227.798 243.991 226.231 243.259 224.898C242.528 223.531 241.53 222.481 240.264 221.748C238.999 220.981 237.566 220.598 235.966 220.598C234.333 220.598 232.899 220.981 231.664 221.748C230.43 222.481 229.461 223.531 228.759 224.898C228.091 226.231 227.755 227.815 227.752 229.648C227.749 231.481 228.096 233.081 228.794 234.448C229.492 235.815 230.457 236.881 231.689 237.648C232.921 238.415 234.354 238.798 235.987 238.798Z" fill="black"/>
<circle cx="127" cy="87" r="87" fill="#262338"/>
<path d="M125.604 147.5C174.804 147.9 190.104 109.667 191.604 90.4999L157.104 86.9999C151.504 111 132.104 113.333 123.104 111.5C105.104 109.5 100.937 121.333 101.104 127.5C99.504 143.5 116.771 147.5 125.604 147.5Z" fill="#44537E"/>
<path d="M131 26.0031C81.8 25.6031 66.5001 63.8364 65.0001 83.0031L99.5001 86.5031C105.1 62.5031 124.5 60.1698 133.5 62.0031C151.5 64.0031 155.667 52.1698 155.5 46.0031C157.1 30.0031 139.833 26.0031 131 26.0031Z" fill="#693537"/>
<circle cx="81" cy="86.9999" r="18" fill="#E75836"/>
<circle cx="174" cy="86.9999" r="18" fill="#7DABFF"/>
</svg>
