<svg width="166" height="154" viewBox="0 0 166 154" fill="none" xmlns="http://www.w3.org/2000/svg">
<path d="M100.811 43.6759L81.3886 76.862L68.7422 69.5426L100.811 43.6759Z" fill="#FF6666"/>
<path d="M100.812 43.676L81.3887 76.8621L94.0351 84.1815L100.812 43.676Z" fill="#E62E6B"/>
<path d="M61.4014 112.245L80.7888 79.038L68.1346 71.7321L61.4014 112.245Z" fill="#66CCFF"/>
<path d="M61.4015 112.245L80.7889 79.0384L93.4431 86.3443L61.4015 112.245Z" fill="#2EA8E6"/>
<path d="M26.4873 57.4314C9.9297 56.2655 2.76663 66.7194 1.74994 73.1412C14.8992 -9.914 114.504 -15.7769 138.469 27.0348C67.0097 12.3074 45.9761 54.9533 44.2332 78.5C43.8846 62.4026 31.716 58.4107 26.4873 57.4314Z" fill="#7C3F41"/>
<path d="M139.47 96.8117C155.952 97.972 163.707 89.9665 164.719 83.5755C151.63 166.232 51.8555 169.669 28 127.062C99.1327 141.719 119.865 99.7462 121.6 76.3125C121.947 92.3326 134.265 95.8371 139.47 96.8117Z" fill="#44537E"/>
<ellipse cx="143.391" cy="77.4063" rx="22.4219" ry="21.875" transform="rotate(180 143.391 77.4063)" fill="#7DABFF"/>
<circle cx="22.5312" cy="77.4063" r="21.875" transform="rotate(180 22.5312 77.4063)" fill="#F26342"/>
</svg>
