<svg width="224" height="301" viewBox="0 0 224 301" fill="none" xmlns="http://www.w3.org/2000/svg">
<path d="M51.15 272.276C51.15 272.096 51.225 271.946 51.375 271.826C51.525 271.706 51.645 271.646 51.735 271.646C52.815 271.646 53.94 271.631 55.11 271.601C56.31 271.541 57.495 271.496 58.665 271.466C59.865 271.406 61.02 271.346 62.13 271.286C63.24 271.226 64.275 271.151 65.235 271.061C65.505 270.311 65.745 269.561 65.955 268.811C66.165 268.061 66.345 267.296 66.495 266.516C66.645 265.916 66.615 265.526 66.405 265.346C66.225 265.136 65.865 265.031 65.325 265.031H52.815C52.425 265.031 52.23 264.821 52.23 264.401V261.251C52.23 260.891 52.425 260.711 52.815 260.711H68.61C69.96 260.711 70.845 260.996 71.265 261.566C71.715 262.106 71.895 262.946 71.805 264.086C71.295 269.936 69.465 275.081 66.315 279.521C63.165 283.961 58.935 287.741 53.625 290.861C53.385 291.011 53.115 291.071 52.815 291.041C52.545 290.981 52.335 290.831 52.185 290.591L50.61 288.206C50.46 287.966 50.415 287.741 50.475 287.531C50.535 287.291 50.685 287.111 50.925 286.991C53.685 285.371 56.07 283.586 58.08 281.636C60.09 279.686 61.77 277.601 63.12 275.381C61.26 275.531 59.325 275.651 57.315 275.741C55.335 275.831 53.49 275.891 51.78 275.921C51.66 275.921 51.525 275.861 51.375 275.741C51.225 275.621 51.15 275.441 51.15 275.201V272.276ZM85.395 299.456C85.395 299.846 85.185 300.041 84.765 300.041H80.805C80.385 300.041 80.175 299.846 80.175 299.456V277.271H71.895C71.745 277.271 71.595 277.226 71.445 277.136C71.325 277.016 71.265 276.881 71.265 276.731V273.536C71.265 273.386 71.325 273.266 71.445 273.176C71.595 273.056 71.745 272.996 71.895 272.996H80.175V257.921C80.175 257.531 80.385 257.336 80.805 257.336H84.765C85.185 257.336 85.395 257.531 85.395 257.921V299.456ZM96.6643 280.556C96.5143 280.616 96.3343 280.631 96.1243 280.601C95.9443 280.541 95.7793 280.391 95.6293 280.151L94.0093 277.361C93.8893 277.121 93.8743 276.911 93.9643 276.731C94.0843 276.521 94.2493 276.386 94.4593 276.326C96.7093 275.486 98.6743 274.586 100.354 273.626C102.064 272.636 103.504 271.511 104.674 270.251C105.874 268.991 106.804 267.551 107.464 265.931C108.154 264.311 108.604 262.436 108.814 260.306C108.844 260.096 108.904 259.886 108.994 259.676C109.114 259.466 109.294 259.376 109.534 259.406L113.449 259.586C113.959 259.616 114.199 259.946 114.169 260.576C114.139 261.356 114.049 262.091 113.899 262.781C114.259 264.221 114.889 265.601 115.789 266.921C116.689 268.241 117.784 269.456 119.074 270.566C120.394 271.646 121.849 272.606 123.439 273.446C125.029 274.286 126.679 274.946 128.389 275.426C128.599 275.486 128.719 275.621 128.749 275.831C128.809 276.011 128.809 276.176 128.749 276.326L127.219 279.206C126.979 279.656 126.619 279.821 126.139 279.701C124.759 279.341 123.364 278.831 121.954 278.171C120.574 277.511 119.239 276.746 117.949 275.876C116.659 274.976 115.474 273.986 114.394 272.906C113.314 271.796 112.399 270.611 111.649 269.351C110.149 271.991 108.109 274.241 105.529 276.101C102.979 277.961 100.024 279.446 96.6643 280.556ZM130.999 288.116C131.149 288.116 131.299 288.191 131.449 288.341C131.599 288.491 131.674 288.656 131.674 288.836V291.761C131.674 291.911 131.599 292.061 131.449 292.211C131.299 292.361 131.149 292.436 130.999 292.436H91.8043C91.6243 292.436 91.4743 292.361 91.3543 292.211C91.2343 292.061 91.1743 291.911 91.1743 291.761V288.836C91.1743 288.356 91.3843 288.116 91.8043 288.116H130.999ZM169.764 296.216C169.764 297.356 169.509 298.166 168.999 298.646C168.519 299.126 167.709 299.366 166.569 299.366H146.499C145.149 299.366 144.234 299.126 143.754 298.646C143.274 298.166 143.034 297.341 143.034 296.171V287.891C143.034 286.751 143.289 285.941 143.799 285.461C144.309 284.951 145.134 284.696 146.274 284.696H166.344C167.694 284.696 168.594 284.936 169.044 285.416C169.524 285.896 169.764 286.736 169.764 287.936V296.216ZM158.469 278.396C158.529 278.696 158.469 278.921 158.289 279.071C158.139 279.191 157.989 279.266 157.839 279.296C156.699 279.566 155.364 279.806 153.834 280.016C152.304 280.196 150.729 280.346 149.109 280.466C147.519 280.586 145.959 280.661 144.429 280.691C142.899 280.721 141.564 280.676 140.424 280.556C139.434 280.466 138.639 280.166 138.039 279.656C137.469 279.146 137.184 278.441 137.184 277.541V262.016C137.184 260.966 137.394 260.231 137.814 259.811C138.264 259.391 139.059 259.181 140.199 259.181H154.329C154.779 259.181 155.004 259.376 155.004 259.766V262.781C155.004 263.171 154.779 263.366 154.329 263.366H143.214C142.644 263.366 142.359 263.636 142.359 264.176V267.731C144.279 267.731 146.184 267.731 148.074 267.731C149.994 267.701 151.809 267.626 153.519 267.506C153.639 267.506 153.774 267.536 153.924 267.596C154.104 267.656 154.194 267.761 154.194 267.911V270.836C154.194 271.346 154.029 271.601 153.699 271.601C151.839 271.721 149.949 271.796 148.029 271.826C146.139 271.856 144.249 271.871 142.359 271.871V275.111C142.359 275.591 142.434 275.906 142.584 276.056C142.764 276.176 143.139 276.266 143.709 276.326C144.369 276.386 145.224 276.416 146.274 276.416C147.354 276.386 148.509 276.341 149.739 276.281C150.969 276.191 152.214 276.086 153.474 275.966C154.764 275.816 155.964 275.636 157.074 275.426C157.284 275.366 157.479 275.366 157.659 275.426C157.839 275.486 157.959 275.636 158.019 275.876L158.469 278.396ZM157.614 271.556V268.586C157.614 268.436 157.674 268.316 157.794 268.226C157.944 268.106 158.094 268.046 158.244 268.046H164.589V257.921C164.589 257.531 164.784 257.336 165.174 257.336H169.179C169.569 257.336 169.764 257.531 169.764 257.921V281.816C169.764 282.236 169.569 282.446 169.179 282.446H165.174C164.784 282.446 164.589 282.251 164.589 281.861V272.141H158.244C158.094 272.141 157.944 272.081 157.794 271.961C157.674 271.841 157.614 271.706 157.614 271.556ZM164.634 289.421C164.634 289.181 164.589 289.031 164.499 288.971C164.439 288.881 164.289 288.836 164.049 288.836H148.794C148.554 288.836 148.389 288.866 148.299 288.926C148.239 288.986 148.209 289.136 148.209 289.376V294.641C148.209 294.911 148.239 295.076 148.299 295.136C148.389 295.196 148.554 295.226 148.794 295.226H164.049C164.289 295.226 164.439 295.196 164.499 295.136C164.589 295.076 164.634 294.911 164.634 294.641V289.421Z" fill="black"/>
<circle cx="111.656" cy="111.656" r="111.656" fill="#FF4A4A"/>
<g filter="url(#filter0_d_208_15)">
<path d="M107.901 100.177L114.755 93.7266C91.5331 90.8239 89.4905 110.794 91.3719 121.141L74.0361 138.477C49.2017 133.962 45.9496 151.916 47.4278 161.457L55.8941 153.394L66.7793 158.232L70.4077 170.326L63.5541 177.986C87.4209 179.599 88.5498 159.844 86.1308 149.765L105.079 132.833C130.559 135.736 132.091 118.454 129.672 109.45L121.609 116.707L111.127 111.465L107.901 100.177Z" fill="white"/>
</g>
<g filter="url(#filter1_d_208_15)">
<path d="M61.6417 113.599L60.0291 97.8761L73.3332 96.6666V91.0224L62.448 85.3782L69.3017 71.2678L81.7995 76.5088L87.4437 68.8488L81.3963 59.5762L95.1037 51.1099L101.554 59.5762L110.02 58.3667V45.8689H128.162V58.3667L137.032 60.7857L142.676 51.1099L156.787 59.5762L150.739 71.2678L156.787 77.3151L167.672 72.4772L175.332 86.1845L163.237 93.4413L164.447 103.117L177.751 107.552L174.122 122.872L160.818 120.05L156.787 129.725L164.447 137.385L153.158 148.271L145.095 141.014L137.838 145.852L139.451 157.14L122.921 161.172V141.014C139.048 139.401 148.186 125.559 150.739 118.84C159.447 89.4904 140.929 74.8962 130.581 71.2678C88.3306 61.2695 80.1869 92.635 81.3963 109.568L61.6417 113.599Z" fill="white"/>
</g>
<defs>
<filter id="filter0_d_208_15" x="43.128" y="93.4414" width="91.3611" height="92.6379" filterUnits="userSpaceOnUse" color-interpolation-filters="sRGB">
<feFlood flood-opacity="0" result="BackgroundImageFix"/>
<feColorMatrix in="SourceAlpha" type="matrix" values="0 0 0 0 0 0 0 0 0 0 0 0 0 0 0 0 0 0 127 0" result="hardAlpha"/>
<feOffset dy="4"/>
<feGaussianBlur stdDeviation="2"/>
<feComposite in2="hardAlpha" operator="out"/>
<feColorMatrix type="matrix" values="0 0 0 0 0 0 0 0 0 0 0 0 0 0 0 0 0 0 0.25 0"/>
<feBlend mode="normal" in2="BackgroundImageFix" result="effect1_dropShadow_208_15"/>
<feBlend mode="normal" in="SourceGraphic" in2="effect1_dropShadow_208_15" result="shape"/>
</filter>
<filter id="filter1_d_208_15" x="56.0291" y="45.8689" width="125.722" height="123.303" filterUnits="userSpaceOnUse" color-interpolation-filters="sRGB">
<feFlood flood-opacity="0" result="BackgroundImageFix"/>
<feColorMatrix in="SourceAlpha" type="matrix" values="0 0 0 0 0 0 0 0 0 0 0 0 0 0 0 0 0 0 127 0" result="hardAlpha"/>
<feOffset dy="4"/>
<feGaussianBlur stdDeviation="2"/>
<feComposite in2="hardAlpha" operator="out"/>
<feColorMatrix type="matrix" values="0 0 0 0 0 0 0 0 0 0 0 0 0 0 0 0 0 0 0.25 0"/>
<feBlend mode="normal" in2="BackgroundImageFix" result="effect1_dropShadow_208_15"/>
<feBlend mode="normal" in="SourceGraphic" in2="effect1_dropShadow_208_15" result="shape"/>
</filter>
</defs>
</svg>
