<svg width="224" height="300" viewBox="0 0 224 300" fill="none" xmlns="http://www.w3.org/2000/svg">
<circle cx="111.656" cy="111.656" r="111.656" fill="#4D93FC"/>
<path d="M67.105 286.676C65.605 286.676 64.285 286.826 63.145 287.126C62.005 287.396 61.045 287.756 60.265 288.206C59.515 288.656 58.93 289.166 58.51 289.736C58.12 290.276 57.925 290.816 57.925 291.356C57.925 291.896 58.12 292.451 58.51 293.021C58.93 293.561 59.515 294.056 60.265 294.506C61.045 294.956 62.005 295.316 63.145 295.586C64.285 295.886 65.605 296.036 67.105 296.036C68.575 296.036 69.88 295.886 71.02 295.586C72.19 295.316 73.15 294.956 73.9 294.506C74.68 294.056 75.265 293.561 75.655 293.021C76.075 292.451 76.285 291.896 76.285 291.356C76.285 290.816 76.075 290.276 75.655 289.736C75.265 289.166 74.68 288.656 73.9 288.206C73.15 287.756 72.19 287.396 71.02 287.126C69.88 286.826 68.575 286.676 67.105 286.676ZM81.415 291.311C81.415 292.541 81.085 293.681 80.425 294.731C79.795 295.781 78.865 296.696 77.635 297.476C76.435 298.256 74.935 298.856 73.135 299.276C71.365 299.726 69.355 299.951 67.105 299.951C64.855 299.951 62.83 299.726 61.03 299.276C59.26 298.856 57.76 298.256 56.53 297.476C55.33 296.696 54.4 295.781 53.74 294.731C53.11 293.681 52.795 292.541 52.795 291.311C52.795 290.111 53.11 288.986 53.74 287.936C54.4 286.886 55.33 285.986 56.53 285.236C57.76 284.456 59.26 283.856 61.03 283.436C62.83 282.986 64.855 282.761 67.105 282.761C69.355 282.761 71.365 282.986 73.135 283.436C74.935 283.856 76.435 284.456 77.635 285.236C78.865 285.986 79.795 286.886 80.425 287.936C81.085 288.986 81.415 290.111 81.415 291.311ZM87.31 279.161C87.31 279.311 87.235 279.461 87.085 279.611C86.935 279.761 86.785 279.836 86.635 279.836H47.485C47.305 279.836 47.155 279.761 47.035 279.611C46.915 279.461 46.855 279.311 46.855 279.161V276.236C46.855 276.056 46.915 275.891 47.035 275.741C47.155 275.591 47.305 275.516 47.485 275.516H62.965V268.361C62.965 267.941 63.175 267.731 63.595 267.731H67.51C67.93 267.731 68.14 267.941 68.14 268.361V275.516H86.455C86.605 275.516 86.785 275.606 86.995 275.786C87.205 275.936 87.31 276.086 87.31 276.236V279.161ZM81.37 261.521C81.37 262.121 81.34 262.946 81.28 263.996C81.22 265.016 81.145 266.081 81.055 267.191C80.965 268.271 80.86 269.306 80.74 270.296C80.62 271.286 80.5 272.021 80.38 272.501C80.32 272.741 80.2 272.951 80.02 273.131C79.87 273.311 79.675 273.386 79.435 273.356L75.97 273.041C75.52 273.011 75.34 272.696 75.43 272.096C75.52 271.586 75.61 270.956 75.7 270.206C75.79 269.426 75.865 268.646 75.925 267.866C75.985 267.056 76.03 266.276 76.06 265.526C76.12 264.776 76.15 264.176 76.15 263.726C76.15 263.306 76.045 263.051 75.835 262.961C75.655 262.841 75.355 262.781 74.935 262.781H54.055C53.905 262.781 53.755 262.736 53.605 262.646C53.455 262.526 53.38 262.391 53.38 262.241V259.091C53.38 258.911 53.455 258.776 53.605 258.686C53.755 258.596 53.905 258.551 54.055 258.551H78.4C79.18 258.551 79.87 258.776 80.47 259.226C81.07 259.646 81.37 260.411 81.37 261.521ZM93.8093 281.546C93.4493 281.786 93.1643 281.876 92.9543 281.816C92.7443 281.756 92.5343 281.621 92.3243 281.411L90.5243 279.296C90.1943 278.966 90.0593 278.696 90.1193 278.486C90.2093 278.276 90.4043 278.081 90.7043 277.901C92.3843 276.761 93.8543 275.591 95.1143 274.391C96.3743 273.161 97.4243 271.811 98.2643 270.341C99.1343 268.871 99.7793 267.221 100.199 265.391C100.619 263.531 100.829 261.401 100.829 259.001C100.829 258.791 100.904 258.611 101.054 258.461C101.204 258.311 101.354 258.236 101.504 258.236L105.464 258.416C105.854 258.416 106.049 258.641 106.049 259.091C106.049 261.941 105.779 264.461 105.239 266.651C105.749 267.731 106.379 268.751 107.129 269.711C107.879 270.671 108.674 271.556 109.514 272.366C110.384 273.146 111.254 273.836 112.124 274.436C113.024 275.036 113.864 275.516 114.644 275.876C115.154 276.086 115.244 276.446 114.914 276.956L113.384 279.431C113.084 279.911 112.664 280.046 112.124 279.836C110.324 279.026 108.659 277.961 107.129 276.641C105.599 275.291 104.279 273.761 103.169 272.051C102.119 273.941 100.814 275.636 99.2543 277.136C97.6943 278.636 95.8793 280.106 93.8093 281.546ZM125.039 299.321C125.039 299.471 124.964 299.606 124.814 299.726C124.694 299.876 124.544 299.951 124.364 299.951H120.539C120.359 299.951 120.194 299.876 120.044 299.726C119.894 299.606 119.819 299.471 119.819 299.321V288.926C119.819 288.626 119.759 288.431 119.639 288.341C119.519 288.251 119.309 288.206 119.009 288.206H98.3543C98.2043 288.206 98.0543 288.161 97.9043 288.071C97.7843 287.951 97.7243 287.816 97.7243 287.666V284.471C97.7243 284.261 97.7843 284.111 97.9043 284.021C98.0543 283.931 98.2043 283.886 98.3543 283.886H122.024C123.164 283.886 123.944 284.126 124.364 284.606C124.814 285.086 125.039 285.896 125.039 287.036V299.321ZM125.039 281.051C125.039 281.441 124.829 281.636 124.409 281.636H120.449C120.299 281.636 120.149 281.576 119.999 281.456C119.879 281.336 119.819 281.186 119.819 281.006V257.921C119.819 257.771 119.879 257.636 119.999 257.516C120.149 257.396 120.299 257.336 120.449 257.336H124.409C124.829 257.336 125.039 257.531 125.039 257.921V281.051ZM164.569 257.921C164.569 257.531 164.779 257.336 165.199 257.336H169.069C169.459 257.336 169.654 257.531 169.654 257.921V279.836C169.654 280.226 169.459 280.421 169.069 280.421H165.154C164.764 280.421 164.569 280.226 164.569 279.836V271.826H160.519V279.251C160.519 279.671 160.324 279.881 159.934 279.881H156.244C155.824 279.881 155.614 279.671 155.614 279.251V258.641C155.614 258.251 155.824 258.056 156.244 258.056H159.934C160.324 258.056 160.519 258.251 160.519 258.641V267.506H164.569V257.921ZM151.474 275.201C151.474 276.371 151.264 277.181 150.844 277.631C150.424 278.081 149.524 278.306 148.144 278.306H137.074C135.694 278.306 134.794 278.081 134.374 277.631C133.954 277.181 133.744 276.356 133.744 275.156V262.286C133.744 261.116 133.954 260.306 134.374 259.856C134.794 259.406 135.694 259.181 137.074 259.181H148.144C149.524 259.181 150.424 259.406 150.844 259.856C151.264 260.306 151.474 261.131 151.474 262.331V275.201ZM146.434 263.996C146.434 263.576 146.224 263.366 145.804 263.366H139.414C139.144 263.366 138.964 263.411 138.874 263.501C138.814 263.561 138.784 263.711 138.784 263.951V273.491C138.784 273.761 138.814 273.926 138.874 273.986C138.964 274.046 139.144 274.076 139.414 274.076H145.804C146.074 274.076 146.239 274.046 146.299 273.986C146.389 273.926 146.434 273.761 146.434 273.491V263.996ZM164.479 291.491H146.344V294.371C146.344 294.881 146.614 295.136 147.154 295.136H163.624C164.194 295.136 164.479 294.881 164.479 294.371V291.491ZM169.654 296.351C169.654 297.371 169.399 298.121 168.889 298.601C168.409 299.111 167.524 299.366 166.234 299.366H144.589C143.239 299.366 142.324 299.141 141.844 298.691C141.364 298.241 141.124 297.416 141.124 296.216V283.121C141.124 282.971 141.184 282.851 141.304 282.761C141.454 282.641 141.604 282.581 141.754 282.581H145.669C145.849 282.581 145.999 282.641 146.119 282.761C146.269 282.851 146.344 282.971 146.344 283.121V287.306H164.479V282.941C164.479 282.791 164.539 282.656 164.659 282.536C164.779 282.416 164.914 282.356 165.064 282.356H169.069C169.219 282.356 169.354 282.416 169.474 282.536C169.594 282.656 169.654 282.791 169.654 282.941V296.351Z" fill="black"/>
<g filter="url(#filter0_d_207_11)">
<path d="M102.475 176.281V125.118C67.944 128.754 55.1465 97.0914 53.064 80.8056C83.9599 73.9883 104.179 99.5532 110.426 113.188C105.428 77.2833 145.827 64.1411 166.652 62.058C172.558 102.507 135.794 120.952 116.673 125.118V176.281H102.475Z" fill="white"/>
</g>
<defs>
<filter id="filter0_d_207_11" x="49.064" y="62.058" width="122.223" height="122.223" filterUnits="userSpaceOnUse" color-interpolation-filters="sRGB">
<feFlood flood-opacity="0" result="BackgroundImageFix"/>
<feColorMatrix in="SourceAlpha" type="matrix" values="0 0 0 0 0 0 0 0 0 0 0 0 0 0 0 0 0 0 127 0" result="hardAlpha"/>
<feOffset dy="4"/>
<feGaussianBlur stdDeviation="2"/>
<feComposite in2="hardAlpha" operator="out"/>
<feColorMatrix type="matrix" values="0 0 0 0 0 0 0 0 0 0 0 0 0 0 0 0 0 0 0.25 0"/>
<feBlend mode="normal" in2="BackgroundImageFix" result="effect1_dropShadow_207_11"/>
<feBlend mode="normal" in="SourceGraphic" in2="effect1_dropShadow_207_11" result="shape"/>
</filter>
</defs>
</svg>
