<svg width="265" height="40" viewBox="0 0 265 40" fill="none" xmlns="http://www.w3.org/2000/svg">
<path d="M18.118 19.418C18.118 10.626 15.71 6.23 10.894 6.23C6.078 6.23 3.67 10.626 3.67 19.418C3.67 28.238 6.078 32.648 10.894 32.648C15.71 32.648 18.118 28.238 18.118 19.418ZM21.142 19.418C21.142 30.002 17.726 35.294 10.894 35.294C4.006 35.294 0.562 30.002 0.562 19.418C0.562 15.022 1.234 11.452 2.578 8.708C4.286 5.264 7.058 3.542 10.894 3.542C14.674 3.542 17.432 5.264 19.168 8.708C19.812 10.08 20.302 11.648 20.638 13.412C20.974 15.176 21.142 17.178 21.142 19.418ZM38.9687 34.538C38.9687 34.93 38.7727 35.126 38.3807 35.126H36.6587C36.2667 35.126 36.0707 34.93 36.0707 34.538V7.238C35.2027 7.966 34.3907 8.652 33.6347 9.296C32.8787 9.94 32.0807 10.626 31.2407 11.354C30.9327 11.606 30.6527 11.578 30.4007 11.27L29.5607 10.262C29.4767 10.122 29.4347 9.982 29.4347 9.842C29.4347 9.674 29.5047 9.534 29.6447 9.422L36.1547 3.962C36.2667 3.85 36.4347 3.794 36.6587 3.794H37.7927C38.3807 3.794 38.7167 3.85 38.8007 3.962C38.9127 4.046 38.9687 4.382 38.9687 4.97V34.538Z" fill="#F34F50"/>
<path d="M84.1069 8.624C84.1069 9.52 83.9109 10.374 83.5189 11.186C83.1549 11.998 82.6089 12.726 81.8809 13.37C81.1809 14.014 80.3269 14.56 79.3189 15.008C78.3389 15.428 77.2189 15.694 75.9589 15.806V19.88C78.0869 19.824 80.1309 19.754 82.0909 19.67C84.0509 19.558 85.8849 19.404 87.5929 19.208C87.8449 19.18 87.9989 19.208 88.0549 19.292C88.1389 19.348 88.1949 19.446 88.2229 19.586L88.3909 21.014C88.4189 21.182 88.3909 21.308 88.3069 21.392C88.2509 21.476 88.0969 21.546 87.8449 21.602C85.5769 21.91 83.0429 22.134 80.2429 22.274C77.4709 22.386 74.6849 22.442 71.8849 22.442H63.1489C62.9809 22.442 62.8269 22.386 62.6869 22.274C62.5749 22.162 62.5189 22.036 62.5189 21.896V20.426C62.5189 20.258 62.5749 20.132 62.6869 20.048C62.8269 19.964 62.9809 19.922 63.1489 19.922H70.4149H73.0609V15.806C71.8569 15.694 70.7649 15.428 69.7849 15.008C68.8049 14.56 67.9649 14.028 67.2649 13.412C66.5929 12.768 66.0609 12.04 65.6689 11.228C65.3049 10.416 65.1229 9.548 65.1229 8.624C65.1229 7.504 65.3469 6.496 65.7949 5.6C66.2429 4.704 66.8729 3.948 67.6849 3.332C68.5249 2.688 69.5189 2.198 70.6669 1.862C71.8149 1.498 73.1029 1.316 74.5309 1.316C75.8749 1.316 77.1209 1.498 78.2689 1.862C79.4449 2.198 80.4669 2.688 81.3349 3.332C82.2029 3.948 82.8749 4.718 83.3509 5.642C83.8549 6.538 84.1069 7.532 84.1069 8.624ZM93.5989 32.354C93.5989 33.53 93.2349 34.538 92.5069 35.378C91.8069 36.246 90.8689 36.96 89.6929 37.52C88.5169 38.08 87.1729 38.486 85.6609 38.738C84.1489 39.018 82.5949 39.158 80.9989 39.158C79.2629 39.158 77.6249 39.018 76.0849 38.738C74.5729 38.486 73.2429 38.08 72.0949 37.52C70.9749 36.96 70.0789 36.246 69.4069 35.378C68.7629 34.538 68.4409 33.53 68.4409 32.354C68.4409 31.178 68.7629 30.17 69.4069 29.33C70.0789 28.49 70.9749 27.804 72.0949 27.272C73.2429 26.74 74.5729 26.348 76.0849 26.096C77.6249 25.844 79.2629 25.718 80.9989 25.718C82.5949 25.718 84.1489 25.844 85.6609 26.096C87.1729 26.348 88.5169 26.74 89.6929 27.272C90.8689 27.804 91.8069 28.49 92.5069 29.33C93.2349 30.17 93.5989 31.178 93.5989 32.354ZM90.6169 32.48C90.6169 31.696 90.3509 31.038 89.8189 30.506C89.2869 29.946 88.5729 29.498 87.6769 29.162C86.7809 28.826 85.7449 28.588 84.5689 28.448C83.4209 28.308 82.2169 28.238 80.9569 28.238C79.5569 28.238 78.2689 28.308 77.0929 28.448C75.9449 28.588 74.9509 28.826 74.1109 29.162C73.2709 29.498 72.6129 29.946 72.1369 30.506C71.6609 31.038 71.4229 31.696 71.4229 32.48C71.4229 33.236 71.6609 33.88 72.1369 34.412C72.6129 34.916 73.2709 35.336 74.1109 35.672C74.9509 36.008 75.9449 36.246 77.0929 36.386C78.2689 36.554 79.5569 36.638 80.9569 36.638C82.2169 36.638 83.4209 36.554 84.5689 36.386C85.7449 36.246 86.7809 36.008 87.6769 35.672C88.5729 35.336 89.2869 34.916 89.8189 34.412C90.3509 33.88 90.6169 33.236 90.6169 32.48ZM81.2509 8.582C81.2509 7.798 81.0549 7.112 80.6629 6.524C80.2989 5.936 79.8089 5.46 79.1929 5.096C78.5769 4.704 77.8629 4.41 77.0509 4.214C76.2389 4.018 75.3989 3.92 74.5309 3.92C73.6349 3.92 72.7809 4.018 71.9689 4.214C71.1849 4.41 70.4989 4.704 69.9109 5.096C69.3229 5.488 68.8469 5.978 68.4829 6.566C68.1469 7.126 67.9789 7.798 67.9789 8.582C67.9789 9.31 68.1469 9.968 68.4829 10.556C68.8189 11.144 69.2809 11.648 69.8689 12.068C70.4569 12.46 71.1429 12.768 71.9269 12.992C72.7389 13.216 73.6069 13.328 74.5309 13.328C75.3989 13.328 76.2389 13.216 77.0509 12.992C77.8629 12.768 78.5769 12.446 79.1929 12.026C79.8089 11.606 80.2989 11.116 80.6629 10.556C81.0549 9.968 81.2509 9.31 81.2509 8.582ZM93.0529 24.374C93.0529 24.766 92.8569 24.962 92.4649 24.962H90.7429C90.3509 24.962 90.1549 24.766 90.1549 24.374V0.895998C90.1549 0.503999 90.3509 0.307999 90.7429 0.307999H92.4649C92.8569 0.307999 93.0529 0.503999 93.0529 0.895998V12.614H98.8489C99.0169 12.614 99.1569 12.67 99.2689 12.782C99.4089 12.866 99.4789 12.992 99.4789 13.16V14.588C99.4789 14.728 99.4089 14.854 99.2689 14.966C99.1569 15.078 99.0169 15.134 98.8489 15.134H93.0529V24.374ZM132.551 28.784C132.551 29.176 132.355 29.372 131.963 29.372H130.241C129.849 29.372 129.653 29.176 129.653 28.784V0.895998C129.653 0.503999 129.849 0.307999 130.241 0.307999H131.963C132.355 0.307999 132.551 0.503999 132.551 0.895998V13.832H138.347C138.515 13.832 138.655 13.888 138.767 14C138.907 14.084 138.977 14.21 138.977 14.378V15.806C138.977 15.946 138.907 16.072 138.767 16.184C138.655 16.296 138.515 16.352 138.347 16.352H132.551V28.784ZM127.553 20.174C127.805 20.146 127.959 20.174 128.015 20.258C128.099 20.314 128.155 20.412 128.183 20.552L128.351 21.98C128.379 22.148 128.351 22.288 128.267 22.4C128.211 22.484 128.057 22.54 127.805 22.568C125.985 22.792 123.661 22.988 120.833 23.156C118.033 23.324 114.883 23.408 111.383 23.408H102.647C102.479 23.408 102.325 23.352 102.185 23.24C102.073 23.128 102.017 23.002 102.017 22.862V21.392C102.017 21.224 102.073 21.098 102.185 21.014C102.325 20.93 102.479 20.888 102.647 20.888H109.913H111.551V12.362C111.551 11.97 111.747 11.774 112.139 11.774H113.861C114.253 11.774 114.449 11.97 114.449 12.362V20.888C116.941 20.832 119.307 20.762 121.547 20.678C123.787 20.566 125.789 20.398 127.553 20.174ZM134.441 37.772C134.441 37.94 134.371 38.066 134.231 38.15C134.091 38.234 133.951 38.276 133.811 38.276H111.761C110.445 38.276 109.577 38.024 109.157 37.52C108.765 37.016 108.569 36.19 108.569 35.042V27.776C108.569 27.384 108.765 27.188 109.157 27.188H110.879C111.271 27.188 111.467 27.384 111.467 27.776V34.874C111.467 35.266 111.523 35.504 111.635 35.588C111.775 35.7 112.041 35.756 112.433 35.756H133.811C133.951 35.756 134.091 35.798 134.231 35.882C134.371 35.994 134.441 36.12 134.441 36.26V37.772ZM104.831 3.458C104.831 3.29 104.901 3.164 105.041 3.08C105.181 2.996 105.321 2.954 105.461 2.954H120.791C121.463 2.954 121.995 3.024 122.387 3.164C122.807 3.304 123.129 3.514 123.353 3.794C123.577 4.046 123.731 4.382 123.815 4.802C123.899 5.222 123.955 5.726 123.983 6.314C124.039 7.742 123.969 9.31 123.773 11.018C123.577 12.726 123.255 14.42 122.807 16.1C122.751 16.268 122.667 16.422 122.555 16.562C122.471 16.702 122.345 16.758 122.177 16.73L120.497 16.604C120.021 16.576 119.853 16.324 119.993 15.848C120.413 14.448 120.721 12.95 120.917 11.354C121.113 9.758 121.183 8.092 121.127 6.356C121.099 5.964 121.029 5.726 120.917 5.642C120.805 5.53 120.553 5.474 120.161 5.474H105.461C105.321 5.474 105.181 5.432 105.041 5.348C104.901 5.236 104.831 5.11 104.831 4.97V3.458ZM149.537 27.776C149.537 26.6 149.761 25.816 150.209 25.424C150.657 25.004 151.497 24.794 152.729 24.794H170.327C170.999 24.794 171.531 24.836 171.923 24.92C172.343 25.004 172.665 25.158 172.889 25.382C173.141 25.606 173.309 25.914 173.393 26.306C173.477 26.698 173.519 27.188 173.519 27.776V35.714C173.519 36.89 173.295 37.674 172.847 38.066C172.399 38.486 171.559 38.696 170.327 38.696H152.729C152.057 38.696 151.511 38.654 151.091 38.57C150.699 38.486 150.377 38.318 150.125 38.066C149.901 37.842 149.747 37.534 149.663 37.142C149.579 36.778 149.537 36.302 149.537 35.714V27.776ZM153.443 27.314C153.051 27.314 152.785 27.398 152.645 27.566C152.505 27.706 152.435 27.986 152.435 28.406V35.084C152.435 35.504 152.505 35.784 152.645 35.924C152.785 36.092 153.051 36.176 153.443 36.176H169.613C170.005 36.176 170.271 36.092 170.411 35.924C170.551 35.784 170.621 35.504 170.621 35.084V28.406C170.621 27.986 170.551 27.706 170.411 27.566C170.271 27.398 170.005 27.314 169.613 27.314H153.443ZM155.375 1.82C155.375 3.864 155.165 5.768 154.745 7.532C155.081 8.708 155.543 9.828 156.131 10.892C156.747 11.956 157.461 12.95 158.273 13.874C159.085 14.798 159.967 15.638 160.919 16.394C161.899 17.122 162.921 17.738 163.985 18.242C164.153 18.326 164.223 18.452 164.195 18.62C164.195 18.76 164.167 18.886 164.111 18.998L163.229 20.384C163.145 20.524 163.047 20.622 162.935 20.678C162.823 20.734 162.641 20.692 162.389 20.552C161.745 20.216 161.003 19.768 160.163 19.208C159.351 18.62 158.525 17.934 157.685 17.15C156.845 16.366 156.047 15.512 155.291 14.588C154.535 13.636 153.905 12.656 153.401 11.648C152.477 13.776 151.231 15.708 149.663 17.444C148.095 19.18 146.261 20.734 144.161 22.106C144.021 22.19 143.867 22.246 143.699 22.274C143.531 22.302 143.391 22.246 143.279 22.106L142.229 20.72C142.145 20.608 142.131 20.468 142.187 20.3C142.243 20.132 142.341 20.006 142.481 19.922C145.813 17.878 148.319 15.302 149.999 12.194C151.679 9.086 152.491 5.614 152.435 1.778C152.435 1.33 152.603 1.106 152.939 1.106L154.913 1.232C155.221 1.232 155.375 1.428 155.375 1.82ZM170.621 9.674V0.895998C170.621 0.503999 170.817 0.307999 171.209 0.307999H172.931C173.323 0.307999 173.519 0.503999 173.519 0.895998V21.77C173.519 22.162 173.323 22.358 172.931 22.358H171.209C170.817 22.358 170.621 22.162 170.621 21.77V12.194H162.053C161.689 12.194 161.507 12.026 161.507 11.69V10.178C161.507 9.842 161.689 9.674 162.053 9.674H170.621ZM224.789 20.132C224.789 20.524 224.593 20.72 224.201 20.72H222.479C222.087 20.72 221.891 20.524 221.891 20.132V15.974H212.231C211.335 17.066 210.215 17.934 208.871 18.578C207.527 19.194 206.057 19.502 204.461 19.502C203.117 19.502 201.857 19.278 200.681 18.83C199.533 18.354 198.525 17.71 197.657 16.898C196.789 16.086 196.103 15.134 195.599 14.042C195.095 12.922 194.843 11.704 194.843 10.388C194.843 8.988 195.095 7.728 195.599 6.608C196.103 5.488 196.789 4.536 197.657 3.752C198.525 2.94 199.533 2.324 200.681 1.904C201.857 1.456 203.117 1.232 204.461 1.232C206.169 1.232 207.779 1.624 209.291 2.408C210.803 3.164 212.007 4.242 212.903 5.642H221.891V0.895998C221.891 0.503999 222.087 0.307999 222.479 0.307999H224.201C224.593 0.307999 224.789 0.503999 224.789 0.895998V20.132ZM225.671 38.654C225.671 38.794 225.601 38.906 225.461 38.99C225.349 39.102 225.237 39.158 225.125 39.158H203.999C202.683 39.158 201.815 38.906 201.395 38.402C201.003 37.926 200.807 37.1 200.807 35.924V32.774C200.807 31.598 201.045 30.814 201.521 30.422C202.025 30.002 202.907 29.792 204.167 29.792H220.967C221.359 29.792 221.611 29.736 221.723 29.624C221.835 29.512 221.891 29.246 221.891 28.826V26.432C221.891 26.012 221.835 25.746 221.723 25.634C221.639 25.522 221.401 25.466 221.009 25.466H201.311C201.171 25.466 201.031 25.424 200.891 25.34C200.779 25.256 200.723 25.144 200.723 25.004V23.492C200.723 23.352 200.779 23.24 200.891 23.156C201.031 23.072 201.171 23.03 201.311 23.03H221.471C222.143 23.03 222.689 23.086 223.109 23.198C223.529 23.282 223.865 23.436 224.117 23.66C224.369 23.884 224.537 24.206 224.621 24.626C224.733 25.018 224.789 25.508 224.789 26.096V29.246C224.789 30.422 224.537 31.22 224.033 31.64C223.557 32.032 222.689 32.228 221.429 32.228H204.587C204.195 32.228 203.943 32.284 203.831 32.396C203.747 32.508 203.705 32.774 203.705 33.194V35.756C203.705 36.148 203.761 36.4 203.873 36.512C203.985 36.652 204.237 36.722 204.629 36.722H225.083C225.223 36.722 225.349 36.764 225.461 36.848C225.601 36.932 225.671 37.044 225.671 37.184V38.654ZM211.307 10.346C211.307 9.338 211.111 8.442 210.719 7.658C210.355 6.846 209.851 6.174 209.207 5.642C208.591 5.082 207.863 4.662 207.023 4.382C206.211 4.074 205.357 3.92 204.461 3.92C203.537 3.92 202.669 4.06 201.857 4.34C201.045 4.62 200.331 5.04 199.715 5.6C199.127 6.132 198.651 6.804 198.287 7.616C197.951 8.4 197.783 9.31 197.783 10.346C197.783 11.326 197.951 12.222 198.287 13.034C198.623 13.818 199.085 14.504 199.673 15.092C200.261 15.652 200.961 16.086 201.773 16.394C202.585 16.702 203.481 16.856 204.461 16.856C205.357 16.856 206.211 16.702 207.023 16.394C207.863 16.086 208.591 15.652 209.207 15.092C209.851 14.532 210.355 13.846 210.719 13.034C211.111 12.222 211.307 11.326 211.307 10.346ZM214.247 10.388C214.247 11.452 214.051 12.488 213.659 13.496H221.891V8.12H213.953C214.149 8.792 214.247 9.548 214.247 10.388ZM264.287 38.444C264.287 38.836 264.091 39.032 263.699 39.032H261.977C261.585 39.032 261.389 38.836 261.389 38.444V0.895998C261.389 0.503999 261.585 0.307999 261.977 0.307999H263.699C264.091 0.307999 264.287 0.503999 264.287 0.895998V38.444ZM253.031 6.482C252.891 8.89 252.415 11.256 251.603 13.58C250.791 15.904 249.657 18.13 248.201 20.258C246.773 22.358 245.037 24.318 242.993 26.138C240.977 27.93 238.681 29.512 236.105 30.884C235.741 31.08 235.475 31.038 235.307 30.758L234.383 29.288C234.187 28.952 234.243 28.714 234.551 28.574C236.931 27.342 239.031 25.942 240.851 24.374C242.699 22.778 244.267 21.056 245.555 19.208C246.871 17.36 247.907 15.414 248.663 13.37C249.419 11.326 249.895 9.226 250.091 7.07C250.147 6.65 250.091 6.37 249.923 6.23C249.755 6.062 249.475 5.978 249.083 5.978H235.727C235.391 5.978 235.223 5.796 235.223 5.432V3.962C235.223 3.626 235.391 3.458 235.727 3.458H249.881C251.197 3.458 252.065 3.71 252.485 4.214C252.905 4.69 253.087 5.446 253.031 6.482Z" fill="black"/>
</svg>
