<svg width="223" height="300" viewBox="0 0 223 300" fill="none" xmlns="http://www.w3.org/2000/svg">
<circle cx="111.5" cy="111.5" r="111.5" fill="#FFD700"/>
<g filter="url(#filter0_d_219_24)">
<path d="M56 79.7403C56 77.9711 58.1283 77.0732 59.3956 78.3077L85.1005 103.348C85.9289 104.155 87.2673 104.093 88.0178 103.213L110.53 76.815C111.338 75.8684 112.804 75.8807 113.595 76.8407L135.283 103.153C136.03 104.059 137.392 104.13 138.229 103.307L163.597 78.3478C164.862 77.1036 167 77.9995 167 79.7735V147C167 148.105 166.105 149 165 149H58C56.8954 149 56 148.105 56 147V79.7403Z" fill="white"/>
</g>
<path d="M61.76 258.235C63.29 258.235 64.685 258.445 65.945 258.865C67.235 259.285 68.33 259.87 69.23 260.62C70.16 261.34 70.865 262.195 71.345 263.185C71.855 264.145 72.11 265.18 72.11 266.29C72.11 267.28 71.915 268.225 71.525 269.125C71.165 269.995 70.64 270.79 69.95 271.51C69.29 272.2 68.48 272.785 67.52 273.265C66.59 273.745 65.54 274.09 64.37 274.3V277.855C66.17 277.765 67.91 277.66 69.59 277.54C71.3 277.42 72.95 277.255 74.54 277.045C74.69 277.015 74.84 277.03 74.99 277.09C75.17 277.15 75.275 277.3 75.305 277.54L75.53 280.285C75.56 280.495 75.515 280.675 75.395 280.825C75.275 280.945 75.14 281.02 74.99 281.05C72.92 281.29 70.745 281.5 68.465 281.68C66.185 281.83 63.905 281.95 61.625 282.04C59.375 282.13 57.17 282.19 55.01 282.22C52.88 282.25 50.9 282.235 49.07 282.175C48.89 282.175 48.74 282.1 48.62 281.95C48.5 281.8 48.44 281.635 48.44 281.455V278.575C48.44 278.155 48.65 277.945 49.07 277.945C50.72 278.005 52.4 278.05 54.11 278.08C55.82 278.08 57.575 278.05 59.375 277.99V274.345C58.175 274.165 57.08 273.835 56.09 273.355C55.13 272.845 54.29 272.245 53.57 271.555C52.88 270.835 52.34 270.025 51.95 269.125C51.59 268.225 51.41 267.28 51.41 266.29C51.41 265.18 51.665 264.145 52.175 263.185C52.685 262.195 53.39 261.34 54.29 260.62C55.19 259.87 56.27 259.285 57.53 258.865C58.82 258.445 60.23 258.235 61.76 258.235ZM82.91 292.255C82.91 293.365 82.61 294.385 82.01 295.315C81.41 296.245 80.51 297.04 79.31 297.7C78.14 298.39 76.685 298.915 74.945 299.275C73.205 299.665 71.21 299.86 68.96 299.86C66.71 299.86 64.715 299.665 62.975 299.275C61.235 298.915 59.765 298.39 58.565 297.7C57.395 297.04 56.51 296.245 55.91 295.315C55.31 294.385 55.01 293.365 55.01 292.255C55.01 291.175 55.31 290.185 55.91 289.285C56.51 288.355 57.395 287.56 58.565 286.9C59.765 286.21 61.235 285.685 62.975 285.325C64.715 284.935 66.71 284.74 68.96 284.74C71.21 284.74 73.205 284.935 74.945 285.325C76.685 285.685 78.14 286.21 79.31 286.9C80.51 287.56 81.41 288.355 82.01 289.285C82.61 290.185 82.91 291.175 82.91 292.255ZM88.985 273.715C88.985 273.865 88.91 274 88.76 274.12C88.64 274.24 88.505 274.3 88.355 274.3H82.46V283.165C82.46 283.555 82.265 283.75 81.875 283.75H77.87C77.48 283.75 77.285 283.555 77.285 283.165V257.695C77.285 257.305 77.48 257.11 77.87 257.11H81.875C82.265 257.11 82.46 257.305 82.46 257.695V269.98H88.355C88.505 269.98 88.64 270.04 88.76 270.16C88.91 270.25 88.985 270.385 88.985 270.565V273.715ZM68.96 288.655C66.08 288.655 63.92 289.03 62.48 289.78C61.07 290.53 60.365 291.37 60.365 292.3C60.365 293.23 61.07 294.07 62.48 294.82C63.92 295.57 66.08 295.945 68.96 295.945C71.84 295.945 73.985 295.57 75.395 294.82C76.835 294.07 77.555 293.23 77.555 292.3C77.555 291.37 76.835 290.53 75.395 289.78C73.985 289.03 71.84 288.655 68.96 288.655ZM61.76 262.195C61.04 262.195 60.35 262.3 59.69 262.51C59.03 262.72 58.445 263.02 57.935 263.41C57.455 263.77 57.065 264.205 56.765 264.715C56.495 265.225 56.36 265.78 56.36 266.38C56.36 267.01 56.495 267.58 56.765 268.09C57.065 268.6 57.455 269.05 57.935 269.44C58.445 269.8 59.03 270.085 59.69 270.295C60.35 270.505 61.04 270.61 61.76 270.61C62.51 270.61 63.215 270.505 63.875 270.295C64.535 270.085 65.105 269.8 65.585 269.44C66.095 269.05 66.485 268.6 66.755 268.09C67.055 267.58 67.205 267.01 67.205 266.38C67.205 265.78 67.055 265.225 66.755 264.715C66.485 264.205 66.095 263.77 65.585 263.41C65.105 263.02 64.535 262.72 63.875 262.51C63.215 262.3 62.51 262.195 61.76 262.195ZM131.304 275.92C131.304 276.07 131.229 276.205 131.079 276.325C130.959 276.445 130.824 276.505 130.674 276.505H124.779V287.665C124.779 288.055 124.584 288.25 124.194 288.25H120.189C119.799 288.25 119.604 288.055 119.604 287.665V257.695C119.604 257.305 119.799 257.11 120.189 257.11H124.194C124.584 257.11 124.779 257.305 124.779 257.695V272.185H130.674C130.824 272.185 130.959 272.245 131.079 272.365C131.229 272.485 131.304 272.62 131.304 272.77V275.92ZM126.399 298.33C126.399 298.51 126.324 298.645 126.174 298.735C126.054 298.825 125.904 298.87 125.724 298.87H101.379C100.029 298.87 99.1143 298.63 98.6343 298.15C98.1543 297.67 97.9143 296.845 97.9143 295.675V287.08C97.9143 286.93 97.9743 286.795 98.0943 286.675C98.2443 286.525 98.4093 286.45 98.5893 286.45H102.459C102.639 286.45 102.804 286.525 102.954 286.675C103.104 286.795 103.179 286.93 103.179 287.08V293.83C103.179 294.13 103.239 294.325 103.359 294.415C103.479 294.505 103.689 294.55 103.989 294.55H125.724C125.874 294.55 126.024 294.61 126.174 294.73C126.324 294.82 126.399 294.94 126.399 295.09V298.33ZM90.7593 279.205C90.7593 278.755 90.9693 278.53 91.3893 278.53C92.7393 278.59 94.1043 278.62 95.4843 278.62C96.8643 278.62 98.2743 278.62 99.7143 278.62V270.07C99.7143 269.62 99.9243 269.395 100.344 269.395H104.169C104.589 269.395 104.799 269.62 104.799 270.07V278.485C106.929 278.425 109.014 278.335 111.054 278.215C113.094 278.065 115.029 277.885 116.859 277.675C117.009 277.645 117.159 277.66 117.309 277.72C117.489 277.78 117.594 277.915 117.624 278.125L117.849 280.87C117.879 281.08 117.834 281.26 117.714 281.41C117.594 281.56 117.459 281.65 117.309 281.68C115.239 281.92 113.064 282.115 110.784 282.265C108.504 282.415 106.224 282.535 103.944 282.625C101.694 282.715 99.4893 282.775 97.3293 282.805C95.1993 282.835 93.2193 282.82 91.3893 282.76C91.2093 282.76 91.0593 282.7 90.9393 282.58C90.8193 282.43 90.7593 282.265 90.7593 282.085V279.205ZM115.149 262.825C115.149 263.695 115.119 264.61 115.059 265.57C114.999 266.5 114.924 267.445 114.834 268.405C114.744 269.365 114.624 270.295 114.474 271.195C114.354 272.065 114.204 272.86 114.024 273.58C113.964 273.82 113.844 274.03 113.664 274.21C113.514 274.39 113.334 274.465 113.124 274.435L109.614 274.12C109.224 274.09 109.074 273.805 109.164 273.265C109.284 272.695 109.404 272.02 109.524 271.24C109.644 270.43 109.749 269.62 109.839 268.81C109.929 268 109.989 267.235 110.019 266.515C110.079 265.795 110.109 265.225 110.109 264.805C110.109 264.385 110.004 264.13 109.794 264.04C109.584 263.92 109.269 263.86 108.849 263.86H94.6743C94.5243 263.86 94.3743 263.815 94.2243 263.725C94.0743 263.605 93.9993 263.47 93.9993 263.32V260.17C93.9993 259.99 94.0743 259.855 94.2243 259.765C94.3743 259.675 94.5243 259.63 94.6743 259.63H112.134C113.094 259.63 113.829 259.885 114.339 260.395C114.879 260.905 115.149 261.715 115.149 262.825ZM168.764 295.99C168.764 297.13 168.509 297.94 167.999 298.42C167.489 298.9 166.664 299.14 165.524 299.14H145.499C144.119 299.14 143.189 298.9 142.709 298.42C142.259 297.94 142.034 297.115 142.034 295.945V286.765C142.034 285.625 142.274 284.8 142.754 284.29C143.264 283.78 144.089 283.525 145.229 283.525H165.299C166.649 283.525 167.564 283.78 168.044 284.29C168.524 284.77 168.764 285.61 168.764 286.81V295.99ZM137.489 281.455C137.129 281.725 136.844 281.83 136.634 281.77C136.424 281.71 136.214 281.56 136.004 281.32L134.204 279.205C133.874 278.875 133.739 278.605 133.799 278.395C133.889 278.185 134.084 277.99 134.384 277.81C136.064 276.67 137.519 275.485 138.749 274.255C140.009 273.025 141.059 271.66 141.899 270.16C142.739 268.63 143.354 266.95 143.744 265.12C144.164 263.26 144.374 261.13 144.374 258.73C144.374 258.49 144.449 258.295 144.599 258.145C144.749 257.995 144.899 257.92 145.049 257.92L149.009 258.1C149.399 258.1 149.594 258.34 149.594 258.82C149.594 260.29 149.519 261.67 149.369 262.96C149.219 264.22 149.009 265.42 148.739 266.56C149.249 267.64 149.879 268.675 150.629 269.665C151.379 270.625 152.174 271.51 153.014 272.32C153.884 273.13 154.769 273.85 155.669 274.48C156.569 275.08 157.409 275.56 158.189 275.92C158.699 276.13 158.789 276.505 158.459 277.045L156.884 279.52C156.614 279.97 156.209 280.09 155.669 279.88C153.869 279.04 152.189 277.96 150.629 276.64C149.099 275.29 147.779 273.76 146.669 272.05C145.649 273.91 144.374 275.59 142.844 277.09C141.344 278.59 139.559 280.045 137.489 281.455ZM155.039 269.62V266.425C155.039 266.275 155.099 266.155 155.219 266.065C155.369 265.945 155.519 265.885 155.669 265.885H163.589V257.695C163.589 257.545 163.649 257.41 163.769 257.29C163.919 257.17 164.069 257.11 164.219 257.11H168.179C168.599 257.11 168.809 257.305 168.809 257.695V280.69C168.809 281.08 168.599 281.275 168.179 281.275H164.219C164.069 281.275 163.919 281.215 163.769 281.095C163.649 280.975 163.589 280.84 163.589 280.69V270.205H155.669C155.519 270.205 155.369 270.145 155.219 270.025C155.099 269.905 155.039 269.77 155.039 269.62ZM163.589 288.25C163.589 288.01 163.544 287.86 163.454 287.8C163.394 287.71 163.244 287.665 163.004 287.665H147.794C147.524 287.665 147.344 287.695 147.254 287.755C147.194 287.815 147.164 287.965 147.164 288.205V294.415C147.164 294.685 147.194 294.85 147.254 294.91C147.344 294.97 147.524 295 147.794 295H163.004C163.244 295 163.394 294.97 163.454 294.91C163.544 294.85 163.589 294.685 163.589 294.415V288.25Z" fill="black"/>
<defs>
<filter id="filter0_d_219_24" x="52" y="76.1128" width="119" height="80.8872" filterUnits="userSpaceOnUse" color-interpolation-filters="sRGB">
<feFlood flood-opacity="0" result="BackgroundImageFix"/>
<feColorMatrix in="SourceAlpha" type="matrix" values="0 0 0 0 0 0 0 0 0 0 0 0 0 0 0 0 0 0 127 0" result="hardAlpha"/>
<feOffset dy="4"/>
<feGaussianBlur stdDeviation="2"/>
<feComposite in2="hardAlpha" operator="out"/>
<feColorMatrix type="matrix" values="0 0 0 0 0 0 0 0 0 0 0 0 0 0 0 0 0 0 0.25 0"/>
<feBlend mode="normal" in2="BackgroundImageFix" result="effect1_dropShadow_219_24"/>
<feBlend mode="normal" in="SourceGraphic" in2="effect1_dropShadow_219_24" result="shape"/>
</filter>
</defs>
</svg>
